<svg xmlns="http://www.w3.org/2000/svg" xmlns:xlink="http://www.w3.org/1999/xlink" width="24" zoomAndPan="magnify" viewBox="0 0 30 30.000001" height="24" preserveAspectRatio="xMidYMid meet" version="1.0"><defs><clipPath id="96f315a0a3"><path d="M 0.484375 0 L 29.515625 0 L 29.515625 29.03125 L 0.484375 29.03125 Z M 0.484375 0 " clip-rule="nonzero"/></clipPath><clipPath id="4109849790"><path d="M 4.113281 8 L 25.886719 8 L 25.886719 21 L 4.113281 21 Z M 4.113281 8 " clip-rule="nonzero"/></clipPath><clipPath id="e7532c1d87"><path d="M 16 6.351562 L 17 6.351562 L 17 7 L 16 7 Z M 16 6.351562 " clip-rule="nonzero"/></clipPath><clipPath id="df77cc4dd4"><path d="M 16 6.351562 L 18 6.351562 L 18 8 L 16 8 Z M 16 6.351562 " clip-rule="nonzero"/></clipPath><clipPath id="8805db539a"><path d="M 15 6.351562 L 16 6.351562 L 16 8 L 15 8 Z M 15 6.351562 " clip-rule="nonzero"/></clipPath></defs><g clip-path="url(#96f315a0a3)"><path fill="#ea3323" d="M 29.515625 14.515625 C 29.515625 15.46875 29.421875 16.414062 29.238281 17.347656 C 29.050781 18.28125 28.777344 19.191406 28.410156 20.070312 C 28.046875 20.953125 27.597656 21.789062 27.070312 22.582031 C 26.539062 23.375 25.9375 24.105469 25.265625 24.78125 C 24.589844 25.453125 23.855469 26.054688 23.066406 26.585938 C 22.273438 27.117188 21.4375 27.5625 20.554688 27.925781 C 19.675781 28.292969 18.765625 28.566406 17.832031 28.753906 C 16.898438 28.9375 15.953125 29.03125 15 29.03125 C 14.046875 29.03125 13.101562 28.9375 12.167969 28.753906 C 11.234375 28.566406 10.324219 28.292969 9.445312 27.925781 C 8.5625 27.5625 7.726562 27.117188 6.933594 26.585938 C 6.144531 26.054688 5.410156 25.453125 4.734375 24.78125 C 4.0625 24.105469 3.460938 23.375 2.929688 22.582031 C 2.402344 21.789062 1.953125 20.953125 1.589844 20.070312 C 1.222656 19.191406 0.949219 18.28125 0.761719 17.347656 C 0.578125 16.414062 0.484375 15.46875 0.484375 14.515625 C 0.484375 13.5625 0.578125 12.617188 0.761719 11.683594 C 0.949219 10.75 1.222656 9.839844 1.589844 8.960938 C 1.953125 8.082031 2.402344 7.242188 2.929688 6.453125 C 3.460938 5.660156 4.0625 4.925781 4.734375 4.25 C 5.410156 3.578125 6.144531 2.976562 6.933594 2.445312 C 7.726562 1.917969 8.5625 1.46875 9.445312 1.105469 C 10.324219 0.738281 11.234375 0.464844 12.167969 0.277344 C 13.101562 0.09375 14.046875 0 15 0 C 15.953125 0 16.898438 0.09375 17.832031 0.277344 C 18.765625 0.464844 19.675781 0.738281 20.554688 1.105469 C 21.4375 1.46875 22.273438 1.917969 23.066406 2.445312 C 23.855469 2.976562 24.589844 3.578125 25.265625 4.25 C 25.9375 4.925781 26.539062 5.660156 27.070312 6.453125 C 27.597656 7.242188 28.046875 8.082031 28.410156 8.960938 C 28.777344 9.839844 29.050781 10.75 29.238281 11.683594 C 29.421875 12.617188 29.515625 13.5625 29.515625 14.515625 Z M 29.515625 14.515625 " fill-opacity="1" fill-rule="nonzero"/></g><path fill="#ffffff" d="M 15 27.648438 C 7.753906 27.648438 1.867188 21.761719 1.867188 14.515625 C 1.867188 7.269531 7.753906 1.382812 15 1.382812 C 22.246094 1.382812 28.132812 7.269531 28.132812 14.515625 C 28.132812 21.761719 22.246094 27.648438 15 27.648438 Z M 15 1.710938 C 7.925781 1.710938 2.191406 7.441406 2.191406 14.515625 C 2.191406 21.589844 7.949219 27.324219 15 27.324219 C 22.074219 27.324219 27.808594 21.570312 27.808594 14.515625 C 27.808594 7.441406 22.074219 1.710938 15 1.710938 Z M 15 1.710938 " fill-opacity="1" fill-rule="nonzero"/><path fill="#ffffff" d="M 9.210938 21.859375 C 8.511719 21.859375 7.949219 21.289062 7.949219 20.589844 C 7.949219 19.886719 8.511719 19.316406 9.210938 19.316406 C 9.910156 19.316406 10.476562 19.886719 10.476562 20.589844 C 10.476562 21.289062 9.910156 21.859375 9.210938 21.859375 Z M 9.210938 18.503906 C 8.066406 18.503906 7.140625 19.4375 7.140625 20.589844 C 7.140625 21.738281 8.066406 22.675781 9.210938 22.675781 C 10.355469 22.675781 11.28125 21.738281 11.28125 20.589844 C 11.28125 19.4375 10.355469 18.503906 9.210938 18.503906 " fill-opacity="1" fill-rule="nonzero"/><path fill="#ffffff" d="M 21.0625 21.367188 C 20.632812 21.367188 20.289062 21.019531 20.289062 20.589844 C 20.289062 20.15625 20.632812 19.808594 21.0625 19.808594 C 21.492188 19.808594 21.839844 20.15625 21.839844 20.589844 C 21.839844 21.019531 21.492188 21.367188 21.0625 21.367188 " fill-opacity="1" fill-rule="nonzero"/><path fill="#ffffff" d="M 9.210938 21.367188 C 8.785156 21.367188 8.4375 21.019531 8.4375 20.589844 C 8.4375 20.15625 8.785156 19.808594 9.210938 19.808594 C 9.640625 19.808594 9.988281 20.15625 9.988281 20.589844 C 9.988281 21.019531 9.640625 21.367188 9.210938 21.367188 " fill-opacity="1" fill-rule="nonzero"/><path fill="#ffffff" d="M 21.0625 21.859375 C 20.363281 21.859375 19.800781 21.289062 19.800781 20.589844 C 19.800781 19.886719 20.363281 19.316406 21.0625 19.316406 C 21.761719 19.316406 22.328125 19.886719 22.328125 20.589844 C 22.328125 21.289062 21.761719 21.859375 21.0625 21.859375 Z M 21.066406 18.503906 C 19.917969 18.503906 18.988281 19.4375 18.988281 20.589844 C 18.988281 21.738281 19.917969 22.675781 21.066406 22.675781 C 22.207031 22.675781 23.136719 21.738281 23.136719 20.589844 C 23.136719 19.4375 22.207031 18.503906 21.066406 18.503906 " fill-opacity="1" fill-rule="nonzero"/><g clip-path="url(#4109849790)"><path fill="#ffffff" d="M 23.738281 14.851562 L 19.9375 14.851562 C 19.851562 14.851562 19.78125 14.78125 19.78125 14.695312 L 19.78125 11.742188 C 19.78125 11.65625 19.851562 11.585938 19.9375 11.585938 L 20.660156 11.585938 C 20.703125 11.585938 20.742188 11.601562 20.773438 11.628906 L 23.84375 14.582031 C 23.949219 14.679688 23.878906 14.851562 23.738281 14.851562 Z M 15.144531 14.511719 L 12.710938 14.511719 L 12.710938 17 L 10.59375 17 L 10.59375 14.511719 L 8.128906 14.511719 L 8.128906 12.394531 L 10.59375 12.394531 L 10.59375 9.980469 L 12.710938 9.980469 L 12.710938 12.394531 L 15.144531 12.394531 Z M 25.84375 15.671875 C 25.84375 15.316406 25.699219 14.972656 25.449219 14.722656 L 21.523438 10.816406 C 21.273438 10.566406 20.9375 10.425781 20.589844 10.425781 L 18.605469 10.425781 L 18.605469 9.679688 C 18.605469 9.125 18.160156 8.675781 17.609375 8.675781 L 5.164062 8.675781 C 4.613281 8.675781 4.164062 9.125 4.164062 9.679688 L 4.164062 9.699219 L 4.15625 9.699219 L 4.15625 9.839844 L 4.164062 19.1875 C 4.164062 19.742188 4.613281 20.191406 5.164062 20.191406 L 6.5 20.191406 C 6.695312 18.859375 7.835938 17.832031 9.210938 17.832031 C 10.585938 17.832031 11.730469 18.859375 11.921875 20.191406 L 18.351562 20.191406 C 18.546875 18.859375 19.6875 17.832031 21.0625 17.832031 C 22.441406 17.832031 23.582031 18.859375 23.777344 20.191406 L 24.84375 20.191406 C 25.398438 20.191406 25.84375 19.742188 25.84375 19.1875 L 25.84375 15.671875 " fill-opacity="1" fill-rule="nonzero"/></g><g clip-path="url(#e7532c1d87)"><path fill="#ffffff" d="M 16.265625 6.949219 L 16.136719 6.949219 C 16.128906 6.949219 16.121094 6.941406 16.121094 6.929688 L 16.121094 6.367188 C 16.121094 6.355469 16.128906 6.347656 16.136719 6.347656 L 16.265625 6.347656 C 16.277344 6.347656 16.285156 6.355469 16.285156 6.367188 L 16.285156 6.929688 C 16.285156 6.941406 16.277344 6.949219 16.265625 6.949219 " fill-opacity="1" fill-rule="nonzero"/></g><g clip-path="url(#df77cc4dd4)"><path fill="#ffffff" d="M 16.785156 7.160156 L 16.683594 7.085938 C 16.675781 7.078125 16.671875 7.066406 16.679688 7.058594 L 17.011719 6.601562 C 17.015625 6.59375 17.027344 6.59375 17.035156 6.597656 L 17.136719 6.671875 C 17.148438 6.679688 17.148438 6.691406 17.144531 6.699219 L 16.8125 7.15625 C 16.804688 7.164062 16.792969 7.164062 16.785156 7.160156 " fill-opacity="1" fill-rule="nonzero"/></g><path fill="#ffffff" d="M 17.078125 7.636719 L 17.042969 7.515625 C 17.039062 7.503906 17.042969 7.496094 17.054688 7.492188 L 17.589844 7.320312 C 17.597656 7.316406 17.609375 7.320312 17.613281 7.332031 L 17.652344 7.453125 C 17.65625 7.460938 17.648438 7.472656 17.640625 7.476562 L 17.101562 7.648438 C 17.09375 7.648438 17.082031 7.644531 17.078125 7.636719 " fill-opacity="1" fill-rule="nonzero"/><path fill="#ffffff" d="M 15.371094 7.496094 L 15.328125 7.617188 C 15.324219 7.625 15.316406 7.632812 15.304688 7.628906 L 14.773438 7.445312 C 14.761719 7.441406 14.757812 7.429688 14.761719 7.421875 L 14.800781 7.300781 C 14.804688 7.292969 14.816406 7.285156 14.824219 7.289062 L 15.359375 7.472656 C 15.367188 7.476562 15.375 7.488281 15.371094 7.496094 " fill-opacity="1" fill-rule="nonzero"/><g clip-path="url(#8805db539a)"><path fill="#ffffff" d="M 15.738281 7.074219 L 15.632812 7.148438 C 15.625 7.152344 15.613281 7.152344 15.609375 7.140625 L 15.285156 6.679688 C 15.28125 6.671875 15.28125 6.660156 15.289062 6.652344 L 15.394531 6.582031 C 15.402344 6.574219 15.414062 6.578125 15.417969 6.585938 L 15.742188 7.046875 C 15.75 7.054688 15.746094 7.070312 15.738281 7.074219 " fill-opacity="1" fill-rule="nonzero"/></g><path fill="#ffffff" d="M 16.800781 8.367188 L 15.601562 8.367188 L 15.601562 7.40625 C 15.601562 7.332031 15.664062 7.269531 15.738281 7.269531 L 16.664062 7.269531 C 16.738281 7.269531 16.800781 7.332031 16.800781 7.40625 L 16.800781 8.367188 " fill-opacity="1" fill-rule="nonzero"/></svg>