<svg xmlns="http://www.w3.org/2000/svg" xmlns:xlink="http://www.w3.org/1999/xlink" width="24" zoomAndPan="magnify" viewBox="0 0 30 30.000001" height="24" preserveAspectRatio="xMidYMid meet" version="1.0"><defs><clipPath id="607a4284f5"><path d="M 0.484375 0 L 29.515625 0 L 29.515625 29.03125 L 0.484375 29.03125 Z M 0.484375 0 " clip-rule="nonzero"/></clipPath><clipPath id="4810bc2168"><path d="M 6.925781 5.484375 L 17 5.484375 L 17 23.628906 L 6.925781 23.628906 Z M 6.925781 5.484375 " clip-rule="nonzero"/></clipPath><clipPath id="83f70f3039"><path d="M 15 9 L 22.894531 9 L 22.894531 23.628906 L 15 23.628906 Z M 15 9 " clip-rule="nonzero"/></clipPath><clipPath id="841ffdfec6"><path d="M 16 5.484375 L 21 5.484375 L 21 10 L 16 10 Z M 16 5.484375 " clip-rule="nonzero"/></clipPath></defs><g clip-path="url(#607a4284f5)"><path fill="#0dbf51" d="M 29.515625 14.515625 C 29.515625 15.46875 29.421875 16.414062 29.238281 17.347656 C 29.050781 18.28125 28.777344 19.191406 28.410156 20.070312 C 28.046875 20.953125 27.597656 21.789062 27.070312 22.582031 C 26.539062 23.375 25.9375 24.105469 25.265625 24.78125 C 24.589844 25.453125 23.855469 26.054688 23.066406 26.585938 C 22.273438 27.117188 21.4375 27.5625 20.554688 27.925781 C 19.675781 28.292969 18.765625 28.566406 17.832031 28.753906 C 16.898438 28.9375 15.953125 29.03125 15 29.03125 C 14.046875 29.03125 13.101562 28.9375 12.167969 28.753906 C 11.234375 28.566406 10.324219 28.292969 9.445312 27.925781 C 8.5625 27.5625 7.726562 27.117188 6.933594 26.585938 C 6.144531 26.054688 5.410156 25.453125 4.734375 24.78125 C 4.0625 24.105469 3.460938 23.375 2.929688 22.582031 C 2.402344 21.789062 1.953125 20.953125 1.589844 20.070312 C 1.222656 19.191406 0.949219 18.28125 0.761719 17.347656 C 0.578125 16.414062 0.484375 15.46875 0.484375 14.515625 C 0.484375 13.5625 0.578125 12.617188 0.761719 11.683594 C 0.949219 10.75 1.222656 9.839844 1.589844 8.960938 C 1.953125 8.082031 2.402344 7.242188 2.929688 6.453125 C 3.460938 5.660156 4.0625 4.925781 4.734375 4.25 C 5.410156 3.578125 6.144531 2.976562 6.933594 2.445312 C 7.726562 1.917969 8.5625 1.46875 9.445312 1.105469 C 10.324219 0.738281 11.234375 0.464844 12.167969 0.277344 C 13.101562 0.09375 14.046875 0 15 0 C 15.953125 0 16.898438 0.09375 17.832031 0.277344 C 18.765625 0.464844 19.675781 0.738281 20.554688 1.105469 C 21.4375 1.46875 22.273438 1.917969 23.066406 2.445312 C 23.855469 2.976562 24.589844 3.578125 25.265625 4.25 C 25.9375 4.925781 26.539062 5.660156 27.070312 6.453125 C 27.597656 7.242188 28.046875 8.082031 28.410156 8.960938 C 28.777344 9.839844 29.050781 10.75 29.238281 11.683594 C 29.421875 12.617188 29.515625 13.5625 29.515625 14.515625 Z M 29.515625 14.515625 " fill-opacity="1" fill-rule="nonzero"/></g><path fill="#ffffff" d="M 15 27.648438 C 7.753906 27.648438 1.867188 21.761719 1.867188 14.515625 C 1.867188 7.269531 7.753906 1.382812 15 1.382812 C 22.246094 1.382812 28.132812 7.269531 28.132812 14.515625 C 28.132812 21.761719 22.246094 27.648438 15 27.648438 Z M 15 1.710938 C 7.925781 1.710938 2.191406 7.441406 2.191406 14.515625 C 2.191406 21.589844 7.949219 27.324219 15 27.324219 C 22.074219 27.324219 27.808594 21.570312 27.808594 14.515625 C 27.808594 7.441406 22.074219 1.710938 15 1.710938 Z M 15 1.710938 " fill-opacity="1" fill-rule="nonzero"/><g clip-path="url(#4810bc2168)"><path fill="#ffffff" d="M 15.0625 16.058594 C 14.777344 15.683594 14.652344 15.226562 14.714844 14.769531 C 14.722656 14.742188 14.722656 14.71875 14.722656 14.699219 L 13.574219 13.773438 L 12.609375 6.046875 C 12.574219 5.804688 12.375 5.628906 12.128906 5.628906 L 7.410156 5.628906 C 7.144531 5.628906 6.925781 5.839844 6.925781 6.109375 L 6.925781 22.96875 C 6.925781 23.238281 7.144531 23.453125 7.410156 23.453125 L 15.566406 23.453125 C 15.832031 23.453125 16.050781 23.238281 16.050781 22.96875 L 16.050781 16.691406 C 15.65625 16.597656 15.308594 16.382812 15.0625 16.058594 Z M 10.949219 18.121094 L 11.398438 18.121094 C 12.320312 18.121094 13.0625 18.914062 12.96875 19.855469 C 12.898438 20.5625 12.339844 21.105469 11.660156 21.238281 L 11.660156 21.871094 C 11.660156 21.945312 11.601562 22.003906 11.53125 22.003906 L 10.820312 22.003906 C 10.746094 22.003906 10.691406 21.945312 10.691406 21.871094 L 10.691406 21.25 C 9.988281 21.132812 9.441406 20.550781 9.378906 19.832031 C 9.375 19.757812 9.4375 19.695312 9.511719 19.695312 L 10.226562 19.695312 C 10.285156 19.695312 10.34375 19.734375 10.351562 19.792969 C 10.398438 20.082031 10.648438 20.304688 10.953125 20.304688 L 11.363281 20.304688 C 11.667969 20.304688 11.949219 20.097656 11.996094 19.796875 C 12.058594 19.417969 11.769531 19.089844 11.398438 19.089844 L 11.023438 19.089844 C 10.199219 19.089844 9.460938 18.488281 9.382812 17.667969 C 9.296875 16.816406 9.894531 16.089844 10.691406 15.957031 L 10.691406 15.335938 C 10.691406 15.261719 10.746094 15.203125 10.820312 15.203125 L 11.53125 15.203125 C 11.601562 15.203125 11.660156 15.261719 11.660156 15.335938 L 11.660156 15.957031 C 12.363281 16.074219 12.910156 16.652344 12.96875 17.371094 C 12.976562 17.449219 12.914062 17.511719 12.839844 17.511719 L 12.125 17.511719 C 12.0625 17.511719 12.007812 17.46875 11.996094 17.414062 C 11.949219 17.125 11.699219 16.902344 11.398438 16.902344 L 10.988281 16.902344 C 10.683594 16.902344 10.402344 17.105469 10.351562 17.40625 C 10.289062 17.789062 10.582031 18.121094 10.949219 18.121094 Z M 10.949219 18.121094 " fill-opacity="1" fill-rule="nonzero"/></g><g clip-path="url(#83f70f3039)"><path fill="#ffffff" d="M 22.792969 13.242188 L 21.796875 10.859375 C 21.433594 9.988281 20.472656 9.480469 19.574219 9.757812 C 19.039062 9.925781 18.675781 10.273438 18.433594 10.753906 C 18.191406 11.234375 17.246094 13.210938 17.246094 13.210938 L 15.882812 14.261719 C 15.476562 14.570312 15.402344 15.152344 15.714844 15.554688 C 15.898438 15.792969 16.167969 15.914062 16.445312 15.914062 C 16.644531 15.914062 16.839844 15.851562 17.007812 15.722656 L 18.542969 14.539062 C 18.65625 14.453125 18.75 14.34375 18.808594 14.214844 L 19.070312 13.683594 L 19.765625 15.347656 C 19.824219 15.492188 19.859375 15.644531 19.871094 15.800781 L 20.300781 22.695312 C 20.328125 23.121094 20.667969 23.472656 21.109375 23.5 C 21.585938 23.53125 21.996094 23.167969 22.023438 22.695312 L 22.632812 16.417969 C 22.679688 15.941406 22.8125 15.480469 22.941406 15.019531 C 23.066406 14.582031 22.976562 13.675781 22.792969 13.242188 Z M 22.792969 13.242188 " fill-opacity="1" fill-rule="nonzero"/></g><g clip-path="url(#841ffdfec6)"><path fill="#ffffff" d="M 19.011719 9.371094 C 19.984375 9.007812 20.480469 7.929688 20.121094 6.957031 C 19.757812 5.988281 18.679688 5.492188 17.707031 5.851562 C 16.734375 6.214844 16.242188 7.292969 16.601562 8.265625 C 16.960938 9.238281 18.042969 9.730469 19.011719 9.371094 Z M 19.011719 9.371094 " fill-opacity="1" fill-rule="nonzero"/></g></svg>