<svg xmlns="http://www.w3.org/2000/svg" xmlns:xlink="http://www.w3.org/1999/xlink" width="24" zoomAndPan="magnify" viewBox="0 0 30 30.000001" height="24" preserveAspectRatio="xMidYMid meet" version="1.0"><defs><clipPath id="cdc2d19abf"><path d="M 0.484375 0 L 29.515625 0 L 29.515625 29.03125 L 0.484375 29.03125 Z M 0.484375 0 " clip-rule="nonzero"/></clipPath><clipPath id="86cf3dd650"><path d="M 6.398438 21 L 23.820312 21 L 23.820312 23.335938 L 6.398438 23.335938 Z M 6.398438 21 " clip-rule="nonzero"/></clipPath><clipPath id="a84fd041e1"><path d="M 6.398438 5.914062 L 23.820312 5.914062 L 23.820312 13 L 6.398438 13 Z M 6.398438 5.914062 " clip-rule="nonzero"/></clipPath></defs><g clip-path="url(#cdc2d19abf)"><path fill="#0dbf51" d="M 29.515625 14.515625 C 29.515625 15.46875 29.421875 16.414062 29.238281 17.347656 C 29.050781 18.28125 28.777344 19.191406 28.410156 20.070312 C 28.046875 20.953125 27.597656 21.789062 27.070312 22.582031 C 26.539062 23.375 25.9375 24.105469 25.265625 24.78125 C 24.589844 25.453125 23.855469 26.054688 23.066406 26.585938 C 22.273438 27.117188 21.4375 27.5625 20.554688 27.925781 C 19.675781 28.292969 18.765625 28.566406 17.832031 28.753906 C 16.898438 28.9375 15.953125 29.03125 15 29.03125 C 14.046875 29.03125 13.101562 28.9375 12.167969 28.753906 C 11.234375 28.566406 10.324219 28.292969 9.445312 27.925781 C 8.5625 27.5625 7.726562 27.117188 6.933594 26.585938 C 6.144531 26.054688 5.410156 25.453125 4.734375 24.78125 C 4.0625 24.105469 3.460938 23.375 2.929688 22.582031 C 2.402344 21.789062 1.953125 20.953125 1.589844 20.070312 C 1.222656 19.191406 0.949219 18.28125 0.761719 17.347656 C 0.578125 16.414062 0.484375 15.46875 0.484375 14.515625 C 0.484375 13.5625 0.578125 12.617188 0.761719 11.683594 C 0.949219 10.75 1.222656 9.839844 1.589844 8.960938 C 1.953125 8.082031 2.402344 7.242188 2.929688 6.453125 C 3.460938 5.660156 4.0625 4.925781 4.734375 4.25 C 5.410156 3.578125 6.144531 2.976562 6.933594 2.445312 C 7.726562 1.917969 8.5625 1.46875 9.445312 1.105469 C 10.324219 0.738281 11.234375 0.464844 12.167969 0.277344 C 13.101562 0.09375 14.046875 0 15 0 C 15.953125 0 16.898438 0.09375 17.832031 0.277344 C 18.765625 0.464844 19.675781 0.738281 20.554688 1.105469 C 21.4375 1.46875 22.273438 1.917969 23.066406 2.445312 C 23.855469 2.976562 24.589844 3.578125 25.265625 4.25 C 25.9375 4.925781 26.539062 5.660156 27.070312 6.453125 C 27.597656 7.242188 28.046875 8.082031 28.410156 8.960938 C 28.777344 9.839844 29.050781 10.75 29.238281 11.683594 C 29.421875 12.617188 29.515625 13.5625 29.515625 14.515625 Z M 29.515625 14.515625 " fill-opacity="1" fill-rule="nonzero"/></g><path fill="#ffffff" d="M 15 27.648438 C 7.753906 27.648438 1.867188 21.761719 1.867188 14.515625 C 1.867188 7.269531 7.753906 1.382812 15 1.382812 C 22.246094 1.382812 28.132812 7.269531 28.132812 14.515625 C 28.132812 21.761719 22.246094 27.648438 15 27.648438 Z M 15 1.710938 C 7.925781 1.710938 2.191406 7.441406 2.191406 14.515625 C 2.191406 21.589844 7.949219 27.324219 15 27.324219 C 22.074219 27.324219 27.808594 21.570312 27.808594 14.515625 C 27.808594 7.441406 22.074219 1.710938 15 1.710938 Z M 15 1.710938 " fill-opacity="1" fill-rule="nonzero"/><path fill="#ffffff" d="M 14.136719 19.058594 C 13.976562 19.058594 13.867188 19.164062 13.867188 19.324219 L 13.867188 19.621094 L 16.09375 19.621094 L 16.09375 19.324219 C 16.09375 19.164062 15.988281 19.058594 15.828125 19.058594 L 15.800781 19.058594 L 15.800781 13.828125 L 15.828125 13.828125 C 15.988281 13.828125 16.09375 13.71875 16.09375 13.558594 L 16.09375 13.265625 L 13.867188 13.265625 L 13.867188 13.558594 C 13.867188 13.71875 13.976562 13.828125 14.136719 13.828125 L 14.164062 13.828125 Z M 14.136719 19.058594 " fill-opacity="1" fill-rule="nonzero"/><path fill="#ffffff" d="M 20.117188 19.058594 C 19.957031 19.058594 19.851562 19.164062 19.851562 19.324219 L 19.851562 19.621094 L 22.101562 19.621094 L 22.101562 19.324219 C 22.101562 19.164062 21.96875 19.058594 21.835938 19.058594 L 21.808594 19.058594 L 21.808594 13.828125 L 21.835938 13.828125 C 21.96875 13.828125 22.101562 13.71875 22.101562 13.558594 L 22.101562 13.265625 L 19.878906 13.265625 L 19.878906 13.558594 C 19.878906 13.71875 19.984375 13.828125 20.144531 13.828125 L 20.171875 13.828125 Z M 20.117188 19.058594 " fill-opacity="1" fill-rule="nonzero"/><path fill="#ffffff" d="M 11.160156 19.058594 C 11.027344 19.058594 10.890625 19.164062 10.890625 19.324219 L 10.890625 19.621094 L 13.144531 19.621094 L 13.144531 19.324219 C 13.144531 19.164062 13.039062 19.058594 12.875 19.058594 L 12.851562 19.058594 L 12.851562 13.828125 L 12.875 13.828125 C 13.039062 13.828125 13.144531 13.71875 13.144531 13.558594 L 13.144531 13.265625 L 10.890625 13.265625 L 10.890625 13.558594 C 10.890625 13.71875 11.027344 13.828125 11.160156 13.828125 L 11.1875 13.828125 Z M 11.160156 19.058594 " fill-opacity="1" fill-rule="nonzero"/><path fill="#ffffff" d="M 8.183594 19.058594 C 8.046875 19.058594 7.914062 19.164062 7.914062 19.324219 L 7.914062 19.621094 L 10.167969 19.621094 L 10.167969 19.324219 C 10.167969 19.164062 10.058594 19.058594 9.898438 19.058594 L 9.871094 19.058594 L 9.871094 13.828125 L 9.898438 13.828125 C 10.058594 13.828125 10.167969 13.71875 10.167969 13.558594 L 10.167969 13.265625 L 7.914062 13.265625 L 7.914062 13.558594 C 7.914062 13.71875 8.046875 13.828125 8.183594 13.828125 L 8.210938 13.828125 Z M 8.183594 19.058594 " fill-opacity="1" fill-rule="nonzero"/><path fill="#ffffff" d="M 17.140625 19.058594 C 17.007812 19.058594 16.871094 19.164062 16.871094 19.324219 L 16.871094 19.621094 L 19.125 19.621094 L 19.125 19.324219 C 19.125 19.164062 18.992188 19.058594 18.859375 19.058594 L 18.832031 19.058594 L 18.832031 13.828125 L 18.859375 13.828125 C 18.992188 13.828125 19.125 13.71875 19.125 13.558594 L 19.125 13.265625 L 16.871094 13.265625 L 16.871094 13.558594 C 16.871094 13.71875 17.007812 13.828125 17.140625 13.828125 L 17.167969 13.828125 Z M 17.140625 19.058594 " fill-opacity="1" fill-rule="nonzero"/><g clip-path="url(#86cf3dd650)"><path fill="#ffffff" d="M 23.308594 21.578125 L 6.679688 21.578125 C 6.546875 21.578125 6.414062 21.714844 6.414062 21.847656 L 6.414062 22.839844 C 6.414062 23 6.546875 23.109375 6.679688 23.109375 L 23.308594 23.109375 C 23.472656 23.109375 23.578125 23 23.578125 22.839844 L 23.578125 21.847656 C 23.578125 21.714844 23.472656 21.578125 23.308594 21.578125 Z M 23.308594 21.578125 " fill-opacity="1" fill-rule="nonzero"/></g><path fill="#ffffff" d="M 7.082031 20.425781 L 7.082031 21.042969 L 22.90625 21.042969 L 22.90625 20.425781 C 22.90625 20.265625 22.773438 20.15625 22.640625 20.15625 L 7.351562 20.15625 C 7.21875 20.15625 7.082031 20.292969 7.082031 20.425781 Z M 7.082031 20.425781 " fill-opacity="1" fill-rule="nonzero"/><path fill="#ffffff" d="M 13.761719 10.074219 L 13.441406 10.824219 L 14.109375 10.824219 Z M 13.761719 10.074219 " fill-opacity="1" fill-rule="nonzero"/><path fill="#ffffff" d="M 12.367188 10.984375 C 12.367188 10.824219 12.234375 10.742188 11.964844 10.742188 L 11.507812 10.742188 L 11.507812 11.253906 L 11.992188 11.253906 C 12.097656 11.253906 12.207031 11.226562 12.257812 11.199219 C 12.3125 11.144531 12.367188 11.09375 12.367188 10.984375 Z M 12.367188 10.984375 " fill-opacity="1" fill-rule="nonzero"/><g clip-path="url(#a84fd041e1)"><path fill="#ffffff" d="M 6.679688 12.726562 L 23.308594 12.726562 C 23.472656 12.726562 23.578125 12.621094 23.578125 12.460938 L 23.578125 11.28125 C 23.578125 11.199219 23.523438 11.09375 23.445312 11.066406 L 15.128906 5.96875 C 15.050781 5.914062 14.941406 5.914062 14.863281 5.96875 L 6.546875 11.039062 C 6.464844 11.09375 6.414062 11.171875 6.414062 11.253906 L 6.414062 12.433594 C 6.414062 12.59375 6.546875 12.726562 6.679688 12.726562 Z M 17.222656 9.671875 L 17.542969 9.671875 L 17.542969 10.582031 L 18.402344 9.671875 L 18.804688 9.671875 L 18.054688 10.476562 L 18.804688 11.519531 L 18.429688 11.519531 L 17.8125 10.714844 L 17.542969 11.011719 L 17.542969 11.519531 L 17.222656 11.519531 Z M 15.023438 9.671875 L 15.34375 9.671875 L 16.417969 11.066406 L 16.417969 9.671875 L 16.738281 9.671875 L 16.738281 11.519531 L 16.390625 11.519531 L 15.34375 10.179688 L 15.34375 11.519531 L 15.023438 11.519531 Z M 13.601562 9.671875 L 13.921875 9.671875 L 14.726562 11.519531 L 14.40625 11.519531 L 14.21875 11.09375 L 13.277344 11.09375 L 13.089844 11.519531 L 12.769531 11.519531 Z M 11.1875 9.671875 L 11.910156 9.671875 C 12.046875 9.671875 12.152344 9.695312 12.234375 9.722656 C 12.3125 9.75 12.394531 9.804688 12.449219 9.859375 C 12.527344 9.964844 12.582031 10.074219 12.582031 10.179688 C 12.582031 10.3125 12.527344 10.421875 12.449219 10.5 C 12.421875 10.527344 12.394531 10.527344 12.367188 10.554688 C 12.339844 10.582031 12.339844 10.582031 12.3125 10.582031 C 12.421875 10.609375 12.527344 10.664062 12.582031 10.742188 C 12.660156 10.824219 12.6875 10.929688 12.6875 11.039062 C 12.6875 11.171875 12.636719 11.28125 12.554688 11.386719 C 12.449219 11.496094 12.257812 11.546875 12.019531 11.546875 L 11.214844 11.546875 L 11.214844 9.671875 Z M 11.1875 9.671875 " fill-opacity="1" fill-rule="nonzero"/></g><path fill="#ffffff" d="M 12.234375 10.207031 C 12.234375 10.125 12.207031 10.046875 12.152344 10.019531 C 12.097656 9.992188 12.019531 9.964844 11.910156 9.964844 L 11.507812 9.964844 L 11.507812 10.449219 L 11.910156 10.449219 C 12.125 10.449219 12.234375 10.367188 12.234375 10.207031 Z M 12.234375 10.207031 " fill-opacity="1" fill-rule="nonzero"/></svg>