<svg xmlns="http://www.w3.org/2000/svg" xmlns:xlink="http://www.w3.org/1999/xlink" width="500" zoomAndPan="magnify" viewBox="0 0 375 374.999991" height="500" preserveAspectRatio="xMidYMid meet" version="1.0"><defs><g/><clipPath id="b65ed63807"><path d="M 187.496094 133.742188 L 233.699219 133.742188 L 233.699219 186.625 L 187.496094 186.625 Z M 187.496094 133.742188 " clip-rule="nonzero"/></clipPath><clipPath id="18e94f9aef"><path d="M 233.699219 160.144531 L 187.496094 186.546875 L 187.496094 133.742188 Z M 233.699219 160.144531 " clip-rule="nonzero"/></clipPath><clipPath id="f81c75812f"><path d="M 141.265625 51.109375 L 187.46875 51.109375 L 187.46875 103.992188 L 141.265625 103.992188 Z M 141.265625 51.109375 " clip-rule="nonzero"/></clipPath><clipPath id="9ef916a216"><path d="M 141.265625 77.589844 L 187.46875 51.1875 L 187.46875 103.992188 Z M 141.265625 77.589844 " clip-rule="nonzero"/></clipPath></defs><rect x="-37.5" width="450" fill="#ffffff" y="-37.499999" height="449.999989" fill-opacity="1"/><rect x="-37.5" width="450" fill="#ffffff" y="-37.499999" height="449.999989" fill-opacity="1"/><g clip-path="url(#b65ed63807)"><g clip-path="url(#18e94f9aef)"><path fill="#000000" d="M 233.699219 133.742188 L 233.699219 186.625 L 187.496094 186.625 L 187.496094 133.742188 Z M 233.699219 133.742188 " fill-opacity="1" fill-rule="nonzero"/></g></g><g fill="#000000" fill-opacity="1"><g transform="translate(2.574823, 294.189817)"><g><path d="M 71.65625 -85.765625 L 71.65625 0 L 54.4375 0 L 54.4375 -7.171875 C 49.96875 -1.773438 43.492188 0.921875 35.015625 0.921875 C 29.160156 0.921875 23.863281 -0.382812 19.125 -3 C 14.382812 -5.625 10.664062 -9.363281 7.96875 -14.21875 C 5.269531 -19.070312 3.921875 -24.695312 3.921875 -31.09375 C 3.921875 -37.488281 5.269531 -43.113281 7.96875 -47.96875 C 10.664062 -52.820312 14.382812 -56.554688 19.125 -59.171875 C 23.863281 -61.796875 29.160156 -63.109375 35.015625 -63.109375 C 42.953125 -63.109375 49.15625 -60.601562 53.625 -55.59375 L 53.625 -85.765625 Z M 38.140625 -13.875 C 42.679688 -13.875 46.453125 -15.429688 49.453125 -18.546875 C 52.460938 -21.671875 53.96875 -25.851562 53.96875 -31.09375 C 53.96875 -36.332031 52.460938 -40.507812 49.453125 -43.625 C 46.453125 -46.75 42.679688 -48.3125 38.140625 -48.3125 C 33.515625 -48.3125 29.695312 -46.75 26.6875 -43.625 C 23.6875 -40.507812 22.1875 -36.332031 22.1875 -31.09375 C 22.1875 -25.851562 23.6875 -21.671875 26.6875 -18.546875 C 29.695312 -15.429688 33.515625 -13.875 38.140625 -13.875 Z M 38.140625 -13.875 "/></g></g></g><g fill="#000000" fill-opacity="1"><g transform="translate(82.551892, 294.189817)"><g><path d="M 69.234375 -30.859375 C 69.234375 -30.628906 69.117188 -29.007812 68.890625 -26 L 21.84375 -26 C 22.6875 -22.144531 24.6875 -19.097656 27.84375 -16.859375 C 31.007812 -14.628906 34.941406 -13.515625 39.640625 -13.515625 C 42.878906 -13.515625 45.75 -13.992188 48.25 -14.953125 C 50.757812 -15.921875 53.09375 -17.445312 55.25 -19.53125 L 64.84375 -9.125 C 58.988281 -2.425781 50.4375 0.921875 39.1875 0.921875 C 32.164062 0.921875 25.957031 -0.441406 20.5625 -3.171875 C 15.175781 -5.910156 11.019531 -9.707031 8.09375 -14.5625 C 5.164062 -19.414062 3.703125 -24.925781 3.703125 -31.09375 C 3.703125 -37.175781 5.144531 -42.664062 8.03125 -47.5625 C 10.914062 -52.457031 14.878906 -56.269531 19.921875 -59 C 24.972656 -61.738281 30.625 -63.109375 36.875 -63.109375 C 42.957031 -63.109375 48.460938 -61.796875 53.390625 -59.171875 C 58.328125 -56.554688 62.203125 -52.800781 65.015625 -47.90625 C 67.828125 -43.007812 69.234375 -37.328125 69.234375 -30.859375 Z M 36.984375 -49.46875 C 32.898438 -49.46875 29.46875 -48.3125 26.6875 -46 C 23.914062 -43.6875 22.222656 -40.523438 21.609375 -36.515625 L 52.234375 -36.515625 C 51.617188 -40.453125 49.925781 -43.59375 47.15625 -45.9375 C 44.382812 -48.289062 40.992188 -49.46875 36.984375 -49.46875 Z M 36.984375 -49.46875 "/></g></g></g><g fill="#000000" fill-opacity="1"><g transform="translate(155.478969, 294.189817)"><g><path d="M 46.109375 -63.109375 C 53.816406 -63.109375 60.039062 -60.796875 64.78125 -56.171875 C 69.519531 -51.546875 71.890625 -44.6875 71.890625 -35.59375 L 71.890625 0 L 53.859375 0 L 53.859375 -32.828125 C 53.859375 -37.753906 52.78125 -41.429688 50.625 -43.859375 C 48.46875 -46.285156 45.347656 -47.5 41.265625 -47.5 C 36.710938 -47.5 33.085938 -46.09375 30.390625 -43.28125 C 27.703125 -40.46875 26.359375 -36.289062 26.359375 -30.75 L 26.359375 0 L 8.328125 0 L 8.328125 -85.765625 L 26.359375 -85.765625 L 26.359375 -55.703125 C 28.742188 -58.097656 31.628906 -59.929688 35.015625 -61.203125 C 38.410156 -62.472656 42.109375 -63.109375 46.109375 -63.109375 Z M 46.109375 -63.109375 "/></g></g></g><g fill="#000000" fill-opacity="1"><g transform="translate(235.34046, 294.189817)"><g><path d="M 29.234375 0.921875 C 24.078125 0.921875 19.03125 0.285156 14.09375 -0.984375 C 9.164062 -2.253906 5.238281 -3.851562 2.3125 -5.78125 L 8.328125 -18.71875 C 11.097656 -16.945312 14.445312 -15.503906 18.375 -14.390625 C 22.300781 -13.273438 26.15625 -12.71875 29.9375 -12.71875 C 37.5625 -12.71875 41.375 -14.601562 41.375 -18.375 C 41.375 -20.144531 40.332031 -21.414062 38.25 -22.1875 C 36.175781 -22.957031 32.976562 -23.613281 28.65625 -24.15625 C 23.570312 -24.925781 19.375 -25.8125 16.0625 -26.8125 C 12.75 -27.8125 9.878906 -29.582031 7.453125 -32.125 C 5.023438 -34.664062 3.8125 -38.289062 3.8125 -43 C 3.8125 -46.925781 4.945312 -50.410156 7.21875 -53.453125 C 9.5 -56.492188 12.8125 -58.863281 17.15625 -60.5625 C 21.507812 -62.257812 26.65625 -63.109375 32.59375 -63.109375 C 36.988281 -63.109375 41.359375 -62.625 45.703125 -61.65625 C 50.054688 -60.695312 53.660156 -59.367188 56.515625 -57.671875 L 50.5 -44.84375 C 45.03125 -47.925781 39.0625 -49.46875 32.59375 -49.46875 C 28.738281 -49.46875 25.847656 -48.925781 23.921875 -47.84375 C 21.992188 -46.769531 21.03125 -45.382812 21.03125 -43.6875 C 21.03125 -41.757812 22.070312 -40.410156 24.15625 -39.640625 C 26.238281 -38.867188 29.550781 -38.140625 34.09375 -37.453125 C 39.175781 -36.597656 43.335938 -35.6875 46.578125 -34.71875 C 49.816406 -33.757812 52.628906 -32.007812 55.015625 -29.46875 C 57.398438 -26.925781 58.59375 -23.382812 58.59375 -18.84375 C 58.59375 -14.988281 57.4375 -11.554688 55.125 -8.546875 C 52.8125 -5.546875 49.441406 -3.21875 45.015625 -1.5625 C 40.585938 0.09375 35.328125 0.921875 29.234375 0.921875 Z M 29.234375 0.921875 "/></g></g></g><g fill="#000000" fill-opacity="1"><g transform="translate(296.710142, 294.189817)"><g><path d="M 37.90625 0.921875 C 31.351562 0.921875 25.476562 -0.441406 20.28125 -3.171875 C 15.082031 -5.910156 11.019531 -9.707031 8.09375 -14.5625 C 5.164062 -19.414062 3.703125 -24.925781 3.703125 -31.09375 C 3.703125 -37.257812 5.164062 -42.769531 8.09375 -47.625 C 11.019531 -52.476562 15.082031 -56.269531 20.28125 -59 C 25.476562 -61.738281 31.351562 -63.109375 37.90625 -63.109375 C 44.457031 -63.109375 50.3125 -61.738281 55.46875 -59 C 60.632812 -56.269531 64.679688 -52.476562 67.609375 -47.625 C 70.535156 -42.769531 72 -37.257812 72 -31.09375 C 72 -24.925781 70.535156 -19.414062 67.609375 -14.5625 C 64.679688 -9.707031 60.632812 -5.910156 55.46875 -3.171875 C 50.3125 -0.441406 44.457031 0.921875 37.90625 0.921875 Z M 37.90625 -13.875 C 42.53125 -13.875 46.328125 -15.429688 49.296875 -18.546875 C 52.265625 -21.671875 53.75 -25.851562 53.75 -31.09375 C 53.75 -36.332031 52.265625 -40.507812 49.296875 -43.625 C 46.328125 -46.75 42.53125 -48.3125 37.90625 -48.3125 C 33.28125 -48.3125 29.460938 -46.75 26.453125 -43.625 C 23.453125 -40.507812 21.953125 -36.332031 21.953125 -31.09375 C 21.953125 -25.851562 23.453125 -21.671875 26.453125 -18.546875 C 29.460938 -15.429688 33.28125 -13.875 37.90625 -13.875 Z M 37.90625 -13.875 "/></g></g></g><g clip-path="url(#f81c75812f)"><g clip-path="url(#9ef916a216)"><path fill="#000000" d="M 141.265625 103.992188 L 141.265625 51.109375 L 187.46875 51.109375 L 187.46875 103.992188 Z M 141.265625 103.992188 " fill-opacity="1" fill-rule="nonzero"/></g></g><path stroke-linecap="butt" transform="matrix(0.559409, -0.499561, 0.499561, 0.559409, 139.761367, 158.469246)" fill="none" stroke-linejoin="miter" d="M 0.000801901 3.00244 L 165.251809 2.999455 " stroke="#000000" stroke-width="6" stroke-opacity="1" stroke-miterlimit="4"/></svg>