<svg xmlns="http://www.w3.org/2000/svg" xmlns:xlink="http://www.w3.org/1999/xlink" width="500" zoomAndPan="magnify" viewBox="0 0 375 374.999991" height="500" preserveAspectRatio="xMidYMid meet" version="1.0"><defs><g/></defs><g fill="#000000" fill-opacity="1"><g transform="translate(0.0914084, 226.814414)"><g><path d="M 9.328125 -78.703125 L 45.078125 -78.703125 C 53.617188 -78.703125 61.171875 -77.070312 67.734375 -73.8125 C 74.296875 -70.550781 79.390625 -65.957031 83.015625 -60.03125 C 86.648438 -54.113281 88.46875 -47.21875 88.46875 -39.34375 C 88.46875 -31.476562 86.648438 -24.582031 83.015625 -18.65625 C 79.390625 -12.738281 74.296875 -8.148438 67.734375 -4.890625 C 61.171875 -1.628906 53.617188 0 45.078125 0 L 9.328125 0 Z M 44.1875 -14.953125 C 52.050781 -14.953125 58.320312 -17.144531 63 -21.53125 C 67.6875 -25.914062 70.03125 -31.851562 70.03125 -39.34375 C 70.03125 -46.84375 67.6875 -52.785156 63 -57.171875 C 58.320312 -61.554688 52.050781 -63.75 44.1875 -63.75 L 27.546875 -63.75 L 27.546875 -14.953125 Z M 44.1875 -14.953125 "/></g></g></g><g fill="#000000" fill-opacity="1"><g transform="translate(92.948671, 226.814414)"><g><path d="M 67.34375 -30.015625 C 67.34375 -29.785156 67.226562 -28.210938 67 -25.296875 L 21.25 -25.296875 C 22.070312 -21.546875 24.019531 -18.582031 27.09375 -16.40625 C 30.164062 -14.238281 33.988281 -13.15625 38.5625 -13.15625 C 41.707031 -13.15625 44.5 -13.625 46.9375 -14.5625 C 49.375 -15.5 51.640625 -16.976562 53.734375 -19 L 63.0625 -8.875 C 57.375 -2.351562 49.054688 0.90625 38.109375 0.90625 C 31.285156 0.90625 25.25 -0.421875 20 -3.078125 C 14.757812 -5.742188 10.710938 -9.4375 7.859375 -14.15625 C 5.015625 -18.882812 3.59375 -24.242188 3.59375 -30.234375 C 3.59375 -36.160156 5 -41.503906 7.8125 -46.265625 C 10.625 -51.023438 14.484375 -54.734375 19.390625 -57.390625 C 24.296875 -60.046875 29.785156 -61.375 35.859375 -61.375 C 41.785156 -61.375 47.144531 -60.097656 51.9375 -57.546875 C 56.738281 -55.003906 60.503906 -51.351562 63.234375 -46.59375 C 65.972656 -41.832031 67.34375 -36.304688 67.34375 -30.015625 Z M 35.96875 -48.109375 C 32 -48.109375 28.664062 -46.984375 25.96875 -44.734375 C 23.269531 -42.492188 21.617188 -39.425781 21.015625 -35.53125 L 50.8125 -35.53125 C 50.21875 -39.351562 48.570312 -42.40625 45.875 -44.6875 C 43.175781 -46.96875 39.875 -48.109375 35.96875 -48.109375 Z M 35.96875 -48.109375 "/></g></g></g><g fill="#000000" fill-opacity="1"><g transform="translate(163.884423, 226.814414)"><g><path d="M 44.859375 -61.375 C 52.347656 -61.375 58.394531 -59.125 63 -54.625 C 67.613281 -50.132812 69.921875 -43.46875 69.921875 -34.625 L 69.921875 0 L 52.390625 0 L 52.390625 -31.921875 C 52.390625 -36.722656 51.335938 -40.300781 49.234375 -42.65625 C 47.140625 -45.019531 44.109375 -46.203125 40.140625 -46.203125 C 35.710938 -46.203125 32.1875 -44.832031 29.5625 -42.09375 C 26.9375 -39.363281 25.625 -35.300781 25.625 -29.90625 L 25.625 0 L 8.09375 0 L 8.09375 -83.421875 L 25.625 -83.421875 L 25.625 -54.1875 C 27.957031 -56.507812 30.769531 -58.285156 34.0625 -59.515625 C 37.363281 -60.753906 40.960938 -61.375 44.859375 -61.375 Z M 44.859375 -61.375 "/></g></g></g><g fill="#000000" fill-opacity="1"><g transform="translate(241.565254, 226.814414)"><g><path d="M 28.4375 0.90625 C 23.414062 0.90625 18.503906 0.285156 13.703125 -0.953125 C 8.910156 -2.191406 5.09375 -3.75 2.25 -5.625 L 8.09375 -18.21875 C 10.789062 -16.488281 14.050781 -15.078125 17.875 -13.984375 C 21.695312 -12.898438 25.445312 -12.359375 29.125 -12.359375 C 36.539062 -12.359375 40.25 -14.195312 40.25 -17.875 C 40.25 -19.59375 39.234375 -20.828125 37.203125 -21.578125 C 35.179688 -22.328125 32.070312 -22.96875 27.875 -23.5 C 22.925781 -24.25 18.84375 -25.109375 15.625 -26.078125 C 12.40625 -27.054688 9.613281 -28.78125 7.25 -31.25 C 4.882812 -33.726562 3.703125 -37.253906 3.703125 -41.828125 C 3.703125 -45.640625 4.804688 -49.023438 7.015625 -51.984375 C 9.234375 -54.953125 12.457031 -57.257812 16.6875 -58.90625 C 20.925781 -60.550781 25.929688 -61.375 31.703125 -61.375 C 35.972656 -61.375 40.222656 -60.90625 44.453125 -59.96875 C 48.691406 -59.039062 52.195312 -57.75 54.96875 -56.09375 L 49.125 -43.625 C 43.800781 -46.613281 37.992188 -48.109375 31.703125 -48.109375 C 27.953125 -48.109375 25.140625 -47.582031 23.265625 -46.53125 C 21.390625 -45.488281 20.453125 -44.144531 20.453125 -42.5 C 20.453125 -40.625 21.460938 -39.3125 23.484375 -38.5625 C 25.515625 -37.8125 28.742188 -37.097656 33.171875 -36.421875 C 38.109375 -35.597656 42.148438 -34.71875 45.296875 -33.78125 C 48.453125 -32.84375 51.191406 -31.132812 53.515625 -28.65625 C 55.835938 -26.1875 57 -22.742188 57 -18.328125 C 57 -14.578125 55.875 -11.238281 53.625 -8.3125 C 51.375 -5.394531 48.09375 -3.128906 43.78125 -1.515625 C 39.476562 0.0976562 34.363281 0.90625 28.4375 0.90625 Z M 28.4375 0.90625 "/></g></g></g><g fill="#000000" fill-opacity="1"><g transform="translate(301.25919, 226.814414)"><g><path d="M 36.875 0.90625 C 30.5 0.90625 24.78125 -0.421875 19.71875 -3.078125 C 14.664062 -5.742188 10.710938 -9.4375 7.859375 -14.15625 C 5.015625 -18.882812 3.59375 -24.242188 3.59375 -30.234375 C 3.59375 -36.234375 5.015625 -41.59375 7.859375 -46.3125 C 10.710938 -51.039062 14.664062 -54.734375 19.71875 -57.390625 C 24.78125 -60.046875 30.5 -61.375 36.875 -61.375 C 43.25 -61.375 48.945312 -60.046875 53.96875 -57.390625 C 58.988281 -54.734375 62.921875 -51.039062 65.765625 -46.3125 C 68.609375 -41.59375 70.03125 -36.234375 70.03125 -30.234375 C 70.03125 -24.242188 68.609375 -18.882812 65.765625 -14.15625 C 62.921875 -9.4375 58.988281 -5.742188 53.96875 -3.078125 C 48.945312 -0.421875 43.25 0.90625 36.875 0.90625 Z M 36.875 -13.484375 C 41.375 -13.484375 45.066406 -15 47.953125 -18.03125 C 50.835938 -21.070312 52.28125 -25.140625 52.28125 -30.234375 C 52.28125 -35.335938 50.835938 -39.40625 47.953125 -42.4375 C 45.066406 -45.476562 41.375 -47 36.875 -47 C 32.375 -47 28.660156 -45.476562 25.734375 -42.4375 C 22.816406 -39.40625 21.359375 -35.335938 21.359375 -30.234375 C 21.359375 -25.140625 22.816406 -21.070312 25.734375 -18.03125 C 28.660156 -15 32.375 -13.484375 36.875 -13.484375 Z M 36.875 -13.484375 "/></g></g></g></svg>