<svg xmlns="http://www.w3.org/2000/svg" xmlns:xlink="http://www.w3.org/1999/xlink" width="500" zoomAndPan="magnify" viewBox="0 0 375 374.999991" height="500" preserveAspectRatio="xMidYMid meet" version="1.0"><defs><clipPath id="f74f5305d3"><path d="M 187.527344 226.105469 L 307.46875 226.105469 L 307.46875 363.386719 L 187.527344 363.386719 Z M 187.527344 226.105469 " clip-rule="nonzero"/></clipPath><clipPath id="b291990497"><path d="M 307.46875 294.644531 L 187.527344 363.183594 L 187.527344 226.105469 Z M 307.46875 294.644531 " clip-rule="nonzero"/></clipPath><clipPath id="02f50ee08d"><path d="M 67.515625 11.589844 L 187.460938 11.589844 L 187.460938 148.867188 L 67.515625 148.867188 Z M 67.515625 11.589844 " clip-rule="nonzero"/></clipPath><clipPath id="8e2888b5dc"><path d="M 67.515625 80.328125 L 187.460938 11.792969 L 187.460938 148.867188 Z M 67.515625 80.328125 " clip-rule="nonzero"/></clipPath></defs><rect x="-37.5" width="450" fill="#ffffff" y="-37.499999" height="449.999989" fill-opacity="1"/><rect x="-37.5" width="450" fill="#ffffff" y="-37.499999" height="449.999989" fill-opacity="1"/><g clip-path="url(#f74f5305d3)"><g clip-path="url(#b291990497)"><path fill="#000000" d="M 307.46875 226.105469 L 307.46875 363.386719 L 187.527344 363.386719 L 187.527344 226.105469 Z M 307.46875 226.105469 " fill-opacity="1" fill-rule="nonzero"/></g></g><g clip-path="url(#02f50ee08d)"><g clip-path="url(#8e2888b5dc)"><path fill="#000000" d="M 67.515625 148.867188 L 67.515625 11.589844 L 187.460938 11.589844 L 187.460938 148.867188 Z M 67.515625 148.867188 " fill-opacity="1" fill-rule="nonzero"/></g></g><path stroke-linecap="butt" transform="matrix(1.719575, -1.535609, 1.535609, 1.719575, 63.669903, 290.345753)" fill="none" stroke-linejoin="miter" d="M -0.000313702 2.499627 L 139.555901 2.499081 " stroke="#000000" stroke-width="5" stroke-opacity="1" stroke-miterlimit="4"/></svg>