<svg version="1.2" xmlns="http://www.w3.org/2000/svg" viewBox="0 0 363 85" width="363" height="85">
	<title>dehsoNameNoLogo</title>
	<style>
		.s0 { fill: #000000 } 
	</style>
	<g>
		<g>
			<g>
				<path class="s0" d="m0.4 5.1h35.8q12.8 0 22.6 4.9 9.9 4.9 15.3 13.8 5.5 8.9 5.5 20.7 0 11.8-5.5 20.7-5.4 8.8-15.3 13.7-9.8 4.9-22.6 4.9h-35.8zm34.9 63.8q11.8 0 18.8-6.6 7-6.6 7-17.8 0-11.3-7-17.9-7-6.5-18.8-6.5h-16.7v48.8z"/>
			</g>
		</g>
	</g>
	<g>
		<g>
			<g>
				<path class="s0" d="m151.3 53.8q0 0.3-0.4 4.7h-45.7q1.2 5.6 5.8 8.9 4.6 3.3 11.5 3.3 4.7 0 8.4-1.4 3.6-1.5 6.8-4.5l9.3 10.1q-8.5 9.8-24.9 9.8-10.3 0-18.2-4-7.8-4-12.1-11-4.3-7.1-4.3-16.1 0-8.9 4.3-16.1 4.2-7.1 11.5-11.1 7.4-4 16.5-4 8.9 0 16.1 3.9 7.2 3.8 11.3 10.9 4.1 7.2 4.1 16.6zm-31.4-18.1q-5.9 0-10 3.4-4 3.3-4.9 9.2h29.8q-0.9-5.7-5-9.2-4-3.4-9.9-3.4z"/>
			</g>
		</g>
	</g>
	<g>
		<g>
			<g>
				<path class="s0" d="m199.7 22.4q11.3 0 18.2 6.8 6.9 6.7 6.9 20v34.6h-17.5v-31.9q0-7.2-3.2-10.7-3.1-3.6-9.1-3.6-6.6 0-10.6 4.1-3.9 4.1-3.9 12.2v29.9h-17.5v-83.4h17.5v29.2q3.5-3.5 8.4-5.3 5-1.9 10.8-1.9z"/>
			</g>
		</g>
	</g>
	<g>
		<g>
			<g>
				<path class="s0" d="m261 84.7q-7.5 0-14.7-1.8-7.2-1.9-11.5-4.7l5.9-12.6q4 2.6 9.7 4.2 5.8 1.7 11.3 1.7 11.1 0 11.1-5.6 0-2.5-3-3.7-3.1-1.1-9.4-1.9-7.4-1.1-12.2-2.6-4.8-1.4-8.4-5.1-3.5-3.8-3.5-10.6 0-5.7 3.3-10.2 3.3-4.4 9.7-6.9 6.3-2.5 15-2.5 6.4 0 12.7 1.4 6.4 1.4 10.5 3.9l-5.8 12.5q-8-4.5-17.4-4.5-5.7 0-8.5 1.6-2.8 1.5-2.8 4 0 2.8 3 4 3.1 1.1 9.7 2.1 7.4 1.2 12.2 2.6 4.7 1.4 8.2 5.2 3.5 3.7 3.5 10.3 0 5.6-3.4 10-3.4 4.4-9.9 6.8-6.4 2.4-15.3 2.4z"/>
			</g>
		</g>
	</g>
	<g>
		<g>
			<g>
				<path class="s0" d="m329.1 84.7q-9.5 0-17.1-4-7.6-4-11.9-11-4.2-7.1-4.2-16.1 0-9 4.2-16.1 4.3-7.1 11.9-11.1 7.6-4 17.1-4 9.6 0 17.1 4 7.6 4 11.8 11.1 4.3 7.1 4.3 16.1 0 9-4.3 16.1-4.2 7-11.8 11-7.5 4-17.1 4zm0-14.4q6.8 0 11.1-4.5 4.3-4.6 4.3-12.2 0-7.7-4.3-12.2-4.3-4.6-11.1-4.6-6.7 0-11.1 4.6-4.4 4.5-4.4 12.2 0 7.6 4.4 12.2 4.4 4.5 11.1 4.5z"/>
			</g>
		</g>
	</g>
</svg>