<svg xmlns="http://www.w3.org/2000/svg" xmlns:xlink="http://www.w3.org/1999/xlink" width="24" zoomAndPan="magnify" viewBox="0 0 30 30.000001" height="24" preserveAspectRatio="xMidYMid meet" version="1.0"><defs><clipPath id="19b5481e1e"><path d="M 0.484375 0 L 29.515625 0 L 29.515625 29.03125 L 0.484375 29.03125 Z M 0.484375 0 " clip-rule="nonzero"/></clipPath><clipPath id="1874bd0bed"><path d="M 4.113281 12 L 19 12 L 19 21 L 4.113281 21 Z M 4.113281 12 " clip-rule="nonzero"/></clipPath><clipPath id="8a25476156"><path d="M 18 11 L 25.886719 11 L 25.886719 21 L 18 21 Z M 18 11 " clip-rule="nonzero"/></clipPath><clipPath id="585780ac9f"><path d="M 20 18 L 25 18 L 25 22.136719 L 20 22.136719 Z M 20 18 " clip-rule="nonzero"/></clipPath><clipPath id="eef31d2dbb"><path d="M 10 18 L 15 18 L 15 22.136719 L 10 22.136719 Z M 10 18 " clip-rule="nonzero"/></clipPath><clipPath id="819d1c9215"><path d="M 5 18 L 10 18 L 10 22.136719 L 5 22.136719 Z M 5 18 " clip-rule="nonzero"/></clipPath><clipPath id="9bf2d042bb"><path d="M 7 6.894531 L 19 6.894531 L 19 12 L 7 12 Z M 7 6.894531 " clip-rule="nonzero"/></clipPath></defs><g clip-path="url(#19b5481e1e)"><path fill="#ea3323" d="M 29.515625 14.515625 C 29.515625 15.46875 29.421875 16.414062 29.238281 17.347656 C 29.050781 18.28125 28.777344 19.191406 28.410156 20.070312 C 28.046875 20.953125 27.597656 21.789062 27.070312 22.582031 C 26.539062 23.375 25.9375 24.105469 25.265625 24.78125 C 24.589844 25.453125 23.855469 26.054688 23.066406 26.585938 C 22.273438 27.117188 21.4375 27.5625 20.554688 27.925781 C 19.675781 28.292969 18.765625 28.566406 17.832031 28.753906 C 16.898438 28.9375 15.953125 29.03125 15 29.03125 C 14.046875 29.03125 13.101562 28.9375 12.167969 28.753906 C 11.234375 28.566406 10.324219 28.292969 9.445312 27.925781 C 8.5625 27.5625 7.726562 27.117188 6.933594 26.585938 C 6.144531 26.054688 5.410156 25.453125 4.734375 24.78125 C 4.0625 24.105469 3.460938 23.375 2.929688 22.582031 C 2.402344 21.789062 1.953125 20.953125 1.589844 20.070312 C 1.222656 19.191406 0.949219 18.28125 0.761719 17.347656 C 0.578125 16.414062 0.484375 15.46875 0.484375 14.515625 C 0.484375 13.5625 0.578125 12.617188 0.761719 11.683594 C 0.949219 10.75 1.222656 9.839844 1.589844 8.960938 C 1.953125 8.082031 2.402344 7.242188 2.929688 6.453125 C 3.460938 5.660156 4.0625 4.925781 4.734375 4.25 C 5.410156 3.578125 6.144531 2.976562 6.933594 2.445312 C 7.726562 1.917969 8.5625 1.46875 9.445312 1.105469 C 10.324219 0.738281 11.234375 0.464844 12.167969 0.277344 C 13.101562 0.09375 14.046875 0 15 0 C 15.953125 0 16.898438 0.09375 17.832031 0.277344 C 18.765625 0.464844 19.675781 0.738281 20.554688 1.105469 C 21.4375 1.46875 22.273438 1.917969 23.066406 2.445312 C 23.855469 2.976562 24.589844 3.578125 25.265625 4.25 C 25.9375 4.925781 26.539062 5.660156 27.070312 6.453125 C 27.597656 7.242188 28.046875 8.082031 28.410156 8.960938 C 28.777344 9.839844 29.050781 10.75 29.238281 11.683594 C 29.421875 12.617188 29.515625 13.5625 29.515625 14.515625 Z M 29.515625 14.515625 " fill-opacity="1" fill-rule="nonzero"/></g><path fill="#ffffff" d="M 15 27.648438 C 7.753906 27.648438 1.867188 21.761719 1.867188 14.515625 C 1.867188 7.269531 7.753906 1.382812 15 1.382812 C 22.246094 1.382812 28.132812 7.269531 28.132812 14.515625 C 28.132812 21.761719 22.246094 27.648438 15 27.648438 Z M 15 1.710938 C 7.925781 1.710938 2.191406 7.441406 2.191406 14.515625 C 2.191406 21.589844 7.949219 27.324219 15 27.324219 C 22.074219 27.324219 27.808594 21.570312 27.808594 14.515625 C 27.808594 7.441406 22.074219 1.710938 15 1.710938 Z M 15 1.710938 " fill-opacity="1" fill-rule="nonzero"/><g clip-path="url(#1874bd0bed)"><path fill="#ffffff" d="M 18.261719 20.414062 L 15.765625 20.414062 C 15.765625 17.648438 15.765625 17.277344 15.765625 14.570312 L 18.261719 14.570312 Z M 7.511719 16.347656 C 7.597656 16.347656 7.675781 16.277344 7.675781 16.1875 L 7.675781 13.796875 C 7.675781 13.703125 7.605469 13.632812 7.511719 13.632812 L 5.21875 13.632812 C 5.128906 13.632812 5.058594 13.703125 5.058594 13.796875 L 5.058594 16.1875 C 5.058594 16.277344 5.128906 16.347656 5.21875 16.347656 Z M 5.378906 16.027344 L 5.378906 13.957031 L 7.347656 13.957031 L 7.347656 16.027344 Z M 14.335938 16.347656 C 14.425781 16.347656 14.496094 16.277344 14.496094 16.1875 L 14.496094 13.796875 C 14.496094 13.703125 14.425781 13.632812 14.335938 13.632812 L 12.042969 13.632812 C 11.953125 13.632812 11.878906 13.703125 11.878906 13.796875 L 11.878906 16.1875 C 11.878906 16.277344 11.953125 16.347656 12.042969 16.347656 Z M 12.203125 16.027344 L 12.203125 13.957031 L 14.171875 13.957031 L 14.171875 16.027344 Z M 10.878906 16.347656 C 10.964844 16.347656 11.039062 16.277344 11.039062 16.1875 L 11.039062 13.796875 C 11.039062 13.703125 10.964844 13.632812 10.878906 13.632812 L 8.582031 13.632812 C 8.492188 13.632812 8.421875 13.703125 8.421875 13.796875 L 8.421875 16.1875 C 8.421875 16.277344 8.492188 16.347656 8.582031 16.347656 Z M 8.742188 16.027344 L 8.742188 13.957031 L 10.714844 13.957031 L 10.714844 16.027344 Z M 15.441406 20.414062 L 14.921875 20.414062 C 14.9375 20.320312 14.941406 20.226562 14.941406 20.128906 C 14.941406 18.832031 13.886719 17.777344 12.589844 17.777344 C 11.300781 17.777344 10.246094 18.832031 10.246094 20.128906 C 10.246094 20.226562 10.25 20.320312 10.261719 20.414062 L 10.117188 20.414062 C 10.125 20.320312 10.128906 20.226562 10.128906 20.128906 C 10.128906 18.832031 9.082031 17.777344 7.785156 17.777344 C 6.488281 17.777344 5.433594 18.832031 5.433594 20.128906 C 5.433594 20.226562 5.445312 20.320312 5.453125 20.414062 L 4.402344 20.414062 C 4.242188 20.414062 4.113281 20.285156 4.113281 20.128906 L 4.113281 17.566406 L 15.441406 17.566406 Z M 4.113281 17.242188 L 4.113281 13.027344 C 4.113281 12.867188 4.242188 12.734375 4.402344 12.734375 L 18.261719 12.734375 L 18.261719 14.242188 L 15.605469 14.242188 C 15.515625 14.242188 15.441406 14.3125 15.441406 14.402344 L 15.441406 17.242188 Z M 4.113281 17.242188 " fill-opacity="1" fill-rule="evenodd"/></g><g clip-path="url(#8a25476156)"><path fill="#ffffff" d="M 25.082031 20.414062 L 24.570312 20.414062 C 24.585938 20.320312 24.589844 20.226562 24.589844 20.128906 C 24.589844 18.832031 23.535156 17.777344 22.246094 17.777344 C 20.949219 17.777344 19.894531 18.832031 19.894531 20.128906 C 19.894531 20.226562 19.898438 20.320312 19.914062 20.414062 L 18.597656 20.414062 L 18.597656 17.425781 L 25.886719 17.425781 L 25.886719 19.578125 C 25.886719 19.648438 25.855469 19.722656 25.808594 19.773438 L 25.292969 20.324219 C 25.238281 20.386719 25.164062 20.414062 25.082031 20.414062 Z M 18.597656 17.105469 L 18.597656 12.25 C 18.597656 12.085938 18.730469 11.957031 18.890625 11.957031 L 23.9375 11.957031 C 24.054688 11.957031 24.160156 12.027344 24.203125 12.132812 L 25.863281 16.085938 C 25.878906 16.121094 25.886719 16.160156 25.886719 16.195312 L 25.886719 17.105469 L 24.308594 17.105469 L 24.308594 15.628906 C 24.308594 15.609375 24.304688 15.589844 24.292969 15.570312 L 23.289062 13.171875 C 23.265625 13.113281 23.203125 13.070312 23.140625 13.070312 L 20.082031 13.070312 C 19.988281 13.070312 19.917969 13.148438 19.917969 13.234375 L 19.917969 17.105469 Z M 23.984375 17.105469 L 20.242188 17.105469 L 20.242188 13.398438 L 23.035156 13.398438 L 23.984375 15.664062 Z M 23.984375 17.105469 " fill-opacity="1" fill-rule="evenodd"/></g><g clip-path="url(#585780ac9f)"><path fill="#ffffff" d="M 22.246094 22.132812 C 21.136719 22.132812 20.238281 21.234375 20.238281 20.128906 C 20.238281 19.019531 21.136719 18.121094 22.246094 18.121094 C 23.351562 18.121094 24.25 19.019531 24.25 20.128906 C 24.25 21.234375 23.351562 22.132812 22.246094 22.132812 Z M 22.246094 20.976562 C 22.710938 20.976562 23.09375 20.597656 23.09375 20.128906 C 23.09375 19.65625 22.710938 19.28125 22.246094 19.28125 C 21.773438 19.28125 21.398438 19.65625 21.398438 20.128906 C 21.398438 20.597656 21.773438 20.976562 22.246094 20.976562 Z M 22.246094 19.601562 C 22.53125 19.601562 22.769531 19.835938 22.769531 20.128906 C 22.769531 20.414062 22.53125 20.652344 22.246094 20.652344 C 21.953125 20.652344 21.71875 20.414062 21.71875 20.128906 C 21.71875 19.835938 21.953125 19.601562 22.246094 19.601562 Z M 22.246094 19.601562 " fill-opacity="1" fill-rule="evenodd"/></g><g clip-path="url(#eef31d2dbb)"><path fill="#ffffff" d="M 12.589844 22.132812 C 11.488281 22.132812 10.585938 21.234375 10.585938 20.128906 C 10.585938 19.019531 11.488281 18.121094 12.589844 18.121094 C 13.703125 18.121094 14.601562 19.019531 14.601562 20.128906 C 14.601562 21.234375 13.703125 22.132812 12.589844 22.132812 Z M 12.589844 20.976562 C 13.058594 20.976562 13.441406 20.597656 13.441406 20.128906 C 13.441406 19.65625 13.058594 19.28125 12.589844 19.28125 C 12.125 19.28125 11.742188 19.65625 11.742188 20.128906 C 11.742188 20.597656 12.125 20.976562 12.589844 20.976562 Z M 12.589844 19.601562 C 12.882812 19.601562 13.117188 19.835938 13.117188 20.128906 C 13.117188 20.414062 12.882812 20.652344 12.589844 20.652344 C 12.304688 20.652344 12.070312 20.414062 12.070312 20.128906 C 12.070312 19.835938 12.304688 19.601562 12.589844 19.601562 Z M 12.589844 19.601562 " fill-opacity="1" fill-rule="evenodd"/></g><g clip-path="url(#819d1c9215)"><path fill="#ffffff" d="M 7.785156 22.132812 C 6.675781 22.132812 5.777344 21.234375 5.777344 20.128906 C 5.777344 19.019531 6.675781 18.121094 7.785156 18.121094 C 8.890625 18.121094 9.792969 19.019531 9.792969 20.128906 C 9.792969 21.234375 8.890625 22.132812 7.785156 22.132812 Z M 7.785156 20.976562 C 8.25 20.976562 8.632812 20.597656 8.632812 20.128906 C 8.632812 19.65625 8.25 19.28125 7.785156 19.28125 C 7.316406 19.28125 6.9375 19.65625 6.9375 20.128906 C 6.9375 20.597656 7.316406 20.976562 7.785156 20.976562 Z M 7.785156 19.601562 C 8.070312 19.601562 8.308594 19.835938 8.308594 20.128906 C 8.308594 20.414062 8.070312 20.652344 7.785156 20.652344 C 7.492188 20.652344 7.257812 20.414062 7.257812 20.128906 C 7.257812 19.835938 7.492188 19.601562 7.785156 19.601562 Z M 7.785156 19.601562 " fill-opacity="1" fill-rule="evenodd"/></g><path fill="#ffffff" d="M 20.175781 11.617188 L 20.175781 11.519531 C 20.175781 10.960938 20.632812 10.503906 21.195312 10.503906 L 21.539062 10.503906 C 22.101562 10.503906 22.550781 10.960938 22.550781 11.519531 L 22.550781 11.617188 Z M 20.175781 11.617188 " fill-opacity="1" fill-rule="evenodd"/><path fill="#ffffff" d="M 21.367188 10.132812 C 21.207031 10.132812 21.074219 10.003906 21.074219 9.84375 L 21.074219 9 C 21.074219 8.84375 21.207031 8.710938 21.367188 8.710938 C 21.527344 8.710938 21.652344 8.84375 21.652344 9 L 21.652344 9.84375 C 21.652344 10.003906 21.527344 10.132812 21.367188 10.132812 Z M 21.367188 10.132812 " fill-opacity="1" fill-rule="evenodd"/><path fill="#ffffff" d="M 22.207031 10.359375 C 22.15625 10.359375 22.105469 10.34375 22.058594 10.320312 C 21.917969 10.238281 21.875 10.0625 21.953125 9.921875 L 22.375 9.195312 C 22.457031 9.054688 22.632812 9.007812 22.773438 9.089844 C 22.910156 9.167969 22.957031 9.34375 22.878906 9.484375 L 22.457031 10.214844 C 22.402344 10.304688 22.304688 10.359375 22.207031 10.359375 Z M 22.207031 10.359375 " fill-opacity="1" fill-rule="evenodd"/><path fill="#ffffff" d="M 22.816406 10.972656 C 22.71875 10.972656 22.621094 10.921875 22.566406 10.828125 C 22.488281 10.6875 22.535156 10.511719 22.671875 10.429688 L 23.40625 10.007812 C 23.542969 9.925781 23.71875 9.976562 23.796875 10.117188 C 23.878906 10.253906 23.832031 10.429688 23.691406 10.511719 L 22.964844 10.933594 C 22.917969 10.957031 22.867188 10.972656 22.816406 10.972656 Z M 22.816406 10.972656 " fill-opacity="1" fill-rule="evenodd"/><path fill="#ffffff" d="M 20.527344 10.359375 C 20.425781 10.359375 20.328125 10.304688 20.277344 10.214844 L 19.855469 9.480469 C 19.773438 9.34375 19.820312 9.167969 19.960938 9.089844 C 20.101562 9.007812 20.277344 9.054688 20.355469 9.195312 L 20.777344 9.921875 C 20.859375 10.0625 20.808594 10.238281 20.671875 10.320312 C 20.625 10.34375 20.578125 10.359375 20.527344 10.359375 Z M 20.527344 10.359375 " fill-opacity="1" fill-rule="evenodd"/><path fill="#ffffff" d="M 19.910156 10.972656 C 19.863281 10.972656 19.8125 10.957031 19.769531 10.933594 L 19.035156 10.511719 C 18.898438 10.429688 18.851562 10.253906 18.929688 10.117188 C 19.011719 9.976562 19.1875 9.925781 19.328125 10.007812 L 20.054688 10.429688 C 20.195312 10.511719 20.242188 10.6875 20.160156 10.828125 C 20.109375 10.921875 20.011719 10.972656 19.910156 10.972656 Z M 19.910156 10.972656 " fill-opacity="1" fill-rule="evenodd"/><path fill="#ffffff" d="M 6.359375 12.398438 L 6.359375 11.460938 C 6.359375 11.300781 6.488281 11.171875 6.648438 11.171875 L 9.75 11.171875 C 9.910156 11.171875 10.039062 11.300781 10.039062 11.460938 L 10.039062 12.398438 Z M 6.359375 12.398438 " fill-opacity="1" fill-rule="evenodd"/><g clip-path="url(#9bf2d042bb)"><path fill="#ffffff" d="M 8.203125 11.75 C 8.085938 11.75 7.976562 11.679688 7.929688 11.570312 C 7.871094 11.417969 7.941406 11.253906 8.089844 11.195312 L 18.507812 6.960938 C 18.652344 6.898438 18.824219 6.96875 18.886719 7.121094 C 18.945312 7.265625 18.875 7.4375 18.722656 7.496094 L 8.308594 11.730469 C 8.273438 11.746094 8.238281 11.75 8.203125 11.75 Z M 8.203125 11.75 " fill-opacity="1" fill-rule="evenodd"/></g></svg>