<svg xmlns="http://www.w3.org/2000/svg" xmlns:xlink="http://www.w3.org/1999/xlink" width="24" zoomAndPan="magnify" viewBox="0 0 30 30.000001" height="24" preserveAspectRatio="xMidYMid meet" version="1.0"><defs><clipPath id="b750464c04"><path d="M 0.484375 0 L 29.515625 0 L 29.515625 29.03125 L 0.484375 29.03125 Z M 0.484375 0 " clip-rule="nonzero"/></clipPath><clipPath id="8dcb06ef3f"><path d="M 3.949219 5.453125 L 25.722656 5.453125 L 25.722656 23.601562 L 3.949219 23.601562 Z M 3.949219 5.453125 " clip-rule="nonzero"/></clipPath></defs><g clip-path="url(#b750464c04)"><path fill="#0000f5" d="M 29.515625 14.515625 C 29.515625 15.46875 29.421875 16.414062 29.238281 17.347656 C 29.050781 18.28125 28.777344 19.191406 28.410156 20.070312 C 28.046875 20.953125 27.597656 21.789062 27.070312 22.582031 C 26.539062 23.375 25.9375 24.105469 25.265625 24.78125 C 24.589844 25.453125 23.855469 26.054688 23.066406 26.585938 C 22.273438 27.117188 21.4375 27.5625 20.554688 27.925781 C 19.675781 28.292969 18.765625 28.566406 17.832031 28.753906 C 16.898438 28.9375 15.953125 29.03125 15 29.03125 C 14.046875 29.03125 13.101562 28.9375 12.167969 28.753906 C 11.234375 28.566406 10.324219 28.292969 9.445312 27.925781 C 8.5625 27.5625 7.726562 27.117188 6.933594 26.585938 C 6.144531 26.054688 5.410156 25.453125 4.734375 24.78125 C 4.0625 24.105469 3.460938 23.375 2.929688 22.582031 C 2.402344 21.789062 1.953125 20.953125 1.589844 20.070312 C 1.222656 19.191406 0.949219 18.28125 0.761719 17.347656 C 0.578125 16.414062 0.484375 15.46875 0.484375 14.515625 C 0.484375 13.5625 0.578125 12.617188 0.761719 11.683594 C 0.949219 10.75 1.222656 9.839844 1.589844 8.960938 C 1.953125 8.082031 2.402344 7.242188 2.929688 6.453125 C 3.460938 5.660156 4.0625 4.925781 4.734375 4.25 C 5.410156 3.578125 6.144531 2.976562 6.933594 2.445312 C 7.726562 1.917969 8.5625 1.46875 9.445312 1.105469 C 10.324219 0.738281 11.234375 0.464844 12.167969 0.277344 C 13.101562 0.09375 14.046875 0 15 0 C 15.953125 0 16.898438 0.09375 17.832031 0.277344 C 18.765625 0.464844 19.675781 0.738281 20.554688 1.105469 C 21.4375 1.46875 22.273438 1.917969 23.066406 2.445312 C 23.855469 2.976562 24.589844 3.578125 25.265625 4.25 C 25.9375 4.925781 26.539062 5.660156 27.070312 6.453125 C 27.597656 7.242188 28.046875 8.082031 28.410156 8.960938 C 28.777344 9.839844 29.050781 10.75 29.238281 11.683594 C 29.421875 12.617188 29.515625 13.5625 29.515625 14.515625 Z M 29.515625 14.515625 " fill-opacity="1" fill-rule="nonzero"/></g><path fill="#ffffff" d="M 15 27.648438 C 7.753906 27.648438 1.867188 21.761719 1.867188 14.515625 C 1.867188 7.269531 7.753906 1.382812 15 1.382812 C 22.246094 1.382812 28.132812 7.269531 28.132812 14.515625 C 28.132812 21.761719 22.246094 27.648438 15 27.648438 Z M 15 1.710938 C 7.925781 1.710938 2.191406 7.441406 2.191406 14.515625 C 2.191406 21.589844 7.949219 27.324219 15 27.324219 C 22.074219 27.324219 27.808594 21.570312 27.808594 14.515625 C 27.808594 7.441406 22.074219 1.710938 15 1.710938 Z M 15 1.710938 " fill-opacity="1" fill-rule="nonzero"/><g clip-path="url(#8dcb06ef3f)"><path fill="#ffffff" d="M 25.601562 13.640625 L 24.335938 13.640625 C 24.558594 13.0625 24.695312 12.464844 24.746094 11.847656 C 24.792969 11.230469 24.753906 10.617188 24.625 10.011719 C 24.496094 9.402344 24.285156 8.828125 23.988281 8.28125 C 23.695312 7.738281 23.328125 7.246094 22.890625 6.808594 C 22.878906 6.796875 22.871094 6.789062 22.863281 6.785156 C 22.03125 6.078125 21.074219 5.683594 19.988281 5.59375 C 18.960938 5.523438 18.003906 5.742188 17.109375 6.25 C 16.644531 6.496094 16.222656 6.800781 15.847656 7.171875 C 15.523438 7.503906 15.246094 7.871094 15.023438 8.28125 C 14.617188 7.445312 14.03125 6.761719 13.265625 6.230469 C 13.253906 6.21875 13.238281 6.210938 13.222656 6.203125 C 12.207031 5.671875 11.128906 5.46875 9.988281 5.59375 C 8.925781 5.714844 7.976562 6.109375 7.136719 6.773438 C 7.125 6.785156 7.113281 6.796875 7.101562 6.804688 C 6.664062 7.246094 6.296875 7.738281 6.003906 8.28125 C 5.707031 8.828125 5.496094 9.402344 5.367188 10.007812 C 5.238281 10.617188 5.199219 11.230469 5.246094 11.847656 C 5.296875 12.464844 5.433594 13.0625 5.65625 13.640625 L 4.390625 13.640625 C 4.273438 13.640625 4.175781 13.683594 4.09375 13.765625 C 4.011719 13.847656 3.972656 13.945312 3.972656 14.0625 C 3.972656 14.175781 4.011719 14.273438 4.09375 14.355469 C 4.175781 14.4375 4.273438 14.480469 4.390625 14.480469 L 6.050781 14.480469 C 6.339844 14.988281 6.6875 15.453125 7.101562 15.863281 L 14.65625 23.417969 C 14.75 23.511719 14.863281 23.550781 14.996094 23.535156 C 15.011719 23.539062 15.027344 23.539062 15.042969 23.539062 C 15.15625 23.539062 15.253906 23.5 15.335938 23.417969 L 22.890625 15.863281 C 23.304688 15.453125 23.652344 14.988281 23.941406 14.480469 L 25.601562 14.480469 C 25.71875 14.480469 25.816406 14.4375 25.898438 14.355469 C 25.980469 14.277344 26.019531 14.175781 26.019531 14.0625 C 26.019531 13.945312 25.980469 13.847656 25.898438 13.765625 C 25.816406 13.683594 25.71875 13.640625 25.601562 13.640625 Z M 6.0625 11.335938 C 6.0625 10.601562 6.199219 9.894531 6.480469 9.214844 C 6.761719 8.535156 7.160156 7.9375 7.679688 7.414062 C 8.386719 6.859375 9.1875 6.527344 10.082031 6.425781 C 11.042969 6.324219 11.949219 6.492188 12.808594 6.933594 C 13.121094 7.152344 13.398438 7.402344 13.644531 7.691406 C 14.101562 8.230469 14.417969 8.84375 14.589844 9.53125 C 14.644531 9.738281 14.777344 9.84375 14.988281 9.847656 C 15.203125 9.855469 15.339844 9.753906 15.398438 9.546875 C 15.597656 8.863281 15.945312 8.269531 16.445312 7.761719 C 16.757812 7.453125 17.113281 7.195312 17.503906 6.988281 C 18.253906 6.5625 19.0625 6.375 19.925781 6.429688 C 20.824219 6.503906 21.617188 6.832031 22.308594 7.410156 C 22.707031 7.8125 23.035156 8.265625 23.296875 8.765625 C 23.558594 9.265625 23.738281 9.796875 23.839844 10.351562 C 23.9375 10.910156 23.953125 11.46875 23.882812 12.027344 C 23.8125 12.589844 23.660156 13.128906 23.429688 13.640625 L 18.828125 13.640625 C 18.699219 13.640625 18.59375 13.691406 18.511719 13.789062 L 16.460938 16.175781 L 13.714844 11.011719 C 13.683594 10.949219 13.640625 10.902344 13.582031 10.863281 C 13.523438 10.824219 13.460938 10.800781 13.390625 10.792969 C 13.320312 10.785156 13.253906 10.792969 13.191406 10.820312 C 13.125 10.847656 13.070312 10.886719 13.027344 10.9375 L 10.746094 13.640625 L 6.5625 13.640625 C 6.230469 12.910156 6.0625 12.140625 6.0625 11.335938 Z M 22.296875 15.273438 L 14.996094 22.574219 L 7.695312 15.273438 C 7.449219 15.027344 7.230469 14.765625 7.035156 14.480469 L 10.941406 14.480469 C 11.070312 14.480469 11.175781 14.429688 11.261719 14.332031 L 13.269531 11.953125 L 16.007812 17.109375 C 16.078125 17.238281 16.183594 17.3125 16.332031 17.328125 C 16.347656 17.332031 16.363281 17.332031 16.378906 17.332031 C 16.503906 17.332031 16.609375 17.28125 16.695312 17.183594 L 19.019531 14.480469 L 22.957031 14.480469 C 22.761719 14.765625 22.539062 15.027344 22.296875 15.273438 Z M 22.296875 15.273438 " fill-opacity="1" fill-rule="nonzero"/></g></svg>