<svg xmlns="http://www.w3.org/2000/svg" xmlns:xlink="http://www.w3.org/1999/xlink" width="24" zoomAndPan="magnify" viewBox="0 0 30 30.000001" height="24" preserveAspectRatio="xMidYMid meet" version="1.0"><defs><clipPath id="39515d8f86"><path d="M 0.484375 0 L 29.515625 0 L 29.515625 29.03125 L 0.484375 29.03125 Z M 0.484375 0 " clip-rule="nonzero"/></clipPath><clipPath id="51c33f2088"><path d="M 10 4.945312 L 20 4.945312 L 20 9 L 10 9 Z M 10 4.945312 " clip-rule="nonzero"/></clipPath><clipPath id="a6702716a4"><path d="M 7.253906 14.515625 L 22.730469 14.515625 L 22.730469 23.816406 L 7.253906 23.816406 Z M 7.253906 14.515625 " clip-rule="nonzero"/></clipPath></defs><g clip-path="url(#39515d8f86)"><path fill="#ea3323" d="M 29.515625 14.515625 C 29.515625 15.46875 29.421875 16.414062 29.238281 17.347656 C 29.050781 18.28125 28.777344 19.191406 28.410156 20.070312 C 28.046875 20.953125 27.597656 21.789062 27.070312 22.582031 C 26.539062 23.375 25.9375 24.105469 25.265625 24.78125 C 24.589844 25.453125 23.855469 26.054688 23.066406 26.585938 C 22.273438 27.117188 21.4375 27.5625 20.554688 27.925781 C 19.675781 28.292969 18.765625 28.566406 17.832031 28.753906 C 16.898438 28.9375 15.953125 29.03125 15 29.03125 C 14.046875 29.03125 13.101562 28.9375 12.167969 28.753906 C 11.234375 28.566406 10.324219 28.292969 9.445312 27.925781 C 8.5625 27.5625 7.726562 27.117188 6.933594 26.585938 C 6.144531 26.054688 5.410156 25.453125 4.734375 24.78125 C 4.0625 24.105469 3.460938 23.375 2.929688 22.582031 C 2.402344 21.789062 1.953125 20.953125 1.589844 20.070312 C 1.222656 19.191406 0.949219 18.28125 0.761719 17.347656 C 0.578125 16.414062 0.484375 15.46875 0.484375 14.515625 C 0.484375 13.5625 0.578125 12.617188 0.761719 11.683594 C 0.949219 10.75 1.222656 9.839844 1.589844 8.960938 C 1.953125 8.082031 2.402344 7.242188 2.929688 6.453125 C 3.460938 5.660156 4.0625 4.925781 4.734375 4.25 C 5.410156 3.578125 6.144531 2.976562 6.933594 2.445312 C 7.726562 1.917969 8.5625 1.46875 9.445312 1.105469 C 10.324219 0.738281 11.234375 0.464844 12.167969 0.277344 C 13.101562 0.09375 14.046875 0 15 0 C 15.953125 0 16.898438 0.09375 17.832031 0.277344 C 18.765625 0.464844 19.675781 0.738281 20.554688 1.105469 C 21.4375 1.46875 22.273438 1.917969 23.066406 2.445312 C 23.855469 2.976562 24.589844 3.578125 25.265625 4.25 C 25.9375 4.925781 26.539062 5.660156 27.070312 6.453125 C 27.597656 7.242188 28.046875 8.082031 28.410156 8.960938 C 28.777344 9.839844 29.050781 10.75 29.238281 11.683594 C 29.421875 12.617188 29.515625 13.5625 29.515625 14.515625 Z M 29.515625 14.515625 " fill-opacity="1" fill-rule="nonzero"/></g><path fill="#ffffff" d="M 15 27.648438 C 7.753906 27.648438 1.867188 21.761719 1.867188 14.515625 C 1.867188 7.269531 7.753906 1.382812 15 1.382812 C 22.246094 1.382812 28.132812 7.269531 28.132812 14.515625 C 28.132812 21.761719 22.246094 27.648438 15 27.648438 Z M 15 1.710938 C 7.925781 1.710938 2.191406 7.441406 2.191406 14.515625 C 2.191406 21.589844 7.949219 27.324219 15 27.324219 C 22.074219 27.324219 27.808594 21.570312 27.808594 14.515625 C 27.808594 7.441406 22.074219 1.710938 15 1.710938 Z M 15 1.710938 " fill-opacity="1" fill-rule="nonzero"/><g clip-path="url(#51c33f2088)"><path fill="#ffffff" d="M 18.414062 8.410156 C 18.644531 8.1875 19.03125 7.929688 19.53125 7.738281 L 18.851562 6.171875 L 14.992188 4.945312 L 11.132812 6.171875 L 10.457031 7.738281 C 10.953125 7.929688 11.339844 8.1875 11.570312 8.410156 L 18.414062 8.410156 " fill-opacity="1" fill-rule="nonzero"/></g><path fill="#ffffff" d="M 11.433594 9.535156 C 11.289062 9.933594 11.210938 10.367188 11.210938 10.816406 C 11.210938 12.90625 12.902344 14.601562 14.992188 14.601562 C 17.082031 14.601562 18.777344 12.90625 18.777344 10.816406 C 18.777344 10.34375 18.6875 9.890625 18.527344 9.472656 C 18.515625 9.492188 18.503906 9.511719 18.488281 9.53125 C 17.933594 10.1875 16.730469 10.519531 14.90625 10.519531 C 13.097656 10.519531 11.929688 10.1875 11.433594 9.535156 " fill-opacity="1" fill-rule="nonzero"/><path fill="#ffffff" d="M 14.90625 9.933594 C 17.058594 9.933594 17.792969 9.441406 18.039062 9.148438 C 18.082031 9.097656 18.117188 9.046875 18.140625 9 L 11.808594 9 C 11.828125 9.058594 11.859375 9.125 11.917969 9.195312 C 12.132812 9.46875 12.8125 9.933594 14.90625 9.933594 " fill-opacity="1" fill-rule="nonzero"/><g clip-path="url(#a6702716a4)"><path fill="#ffffff" d="M 18.398438 21.855469 C 18.351562 21.902344 18.277344 21.902344 18.230469 21.855469 C 17.925781 21.542969 16.910156 21.445312 16.910156 20.910156 C 16.910156 20.4375 17.152344 20.222656 17.152344 19.753906 C 17.152344 19.558594 17.050781 19.316406 16.953125 19.140625 C 16.898438 19.035156 16.976562 18.90625 17.097656 18.910156 C 17.695312 18.929688 18.015625 18.742188 18.175781 18.589844 C 18.253906 18.515625 18.375 18.515625 18.453125 18.589844 C 18.613281 18.742188 18.933594 18.929688 19.53125 18.910156 C 19.652344 18.90625 19.730469 19.035156 19.675781 19.140625 C 19.578125 19.316406 19.472656 19.558594 19.472656 19.753906 C 19.472656 20.222656 19.71875 20.410156 19.71875 20.910156 C 19.71875 21.445312 18.699219 21.542969 18.398438 21.855469 Z M 19.742188 15.09375 C 19.460938 14.925781 19.144531 14.839844 18.816406 14.832031 C 18.34375 14.824219 17.886719 15.023438 17.535156 15.339844 C 16.835938 15.976562 16.277344 16.421875 14.992188 16.421875 C 13.710938 16.421875 13.128906 15.964844 12.460938 15.347656 C 12.15625 15.0625 11.765625 14.867188 11.347656 14.839844 C 10.964844 14.8125 10.574219 14.894531 10.246094 15.09375 C 9.253906 15.699219 7.253906 17.5625 7.253906 22.730469 C 7.253906 22.929688 7.257812 23.128906 7.261719 23.320312 C 7.277344 23.746094 7.628906 24.085938 8.058594 24.085938 L 21.929688 24.085938 C 22.355469 24.085938 22.710938 23.746094 22.722656 23.320312 C 22.730469 23.128906 22.730469 22.929688 22.730469 22.730469 C 22.730469 17.5625 20.730469 15.699219 19.742188 15.09375 " fill-opacity="1" fill-rule="nonzero"/></g></svg>