<svg xmlns="http://www.w3.org/2000/svg" xmlns:xlink="http://www.w3.org/1999/xlink" width="24" zoomAndPan="magnify" viewBox="0 0 30 30.000001" height="24" preserveAspectRatio="xMidYMid meet" version="1.0"><defs><clipPath id="896256eb0d"><path d="M 0.484375 0 L 29.515625 0 L 29.515625 29.03125 L 0.484375 29.03125 Z M 0.484375 0 " clip-rule="nonzero"/></clipPath><clipPath id="5d77ca7f1e"><path d="M 5.035156 8 L 23 8 L 23 21.285156 L 5.035156 21.285156 Z M 5.035156 8 " clip-rule="nonzero"/></clipPath><clipPath id="90aaf9c353"><path d="M 17 7.492188 L 26.808594 7.492188 L 26.808594 17 L 17 17 Z M 17 7.492188 " clip-rule="nonzero"/></clipPath></defs><g clip-path="url(#896256eb0d)"><path fill="#8c1af6" d="M 29.515625 14.515625 C 29.515625 15.46875 29.421875 16.414062 29.238281 17.347656 C 29.050781 18.28125 28.777344 19.191406 28.410156 20.070312 C 28.046875 20.953125 27.597656 21.789062 27.070312 22.582031 C 26.539062 23.375 25.9375 24.105469 25.265625 24.78125 C 24.589844 25.453125 23.855469 26.054688 23.066406 26.585938 C 22.273438 27.117188 21.4375 27.5625 20.554688 27.925781 C 19.675781 28.292969 18.765625 28.566406 17.832031 28.753906 C 16.898438 28.9375 15.953125 29.03125 15 29.03125 C 14.046875 29.03125 13.101562 28.9375 12.167969 28.753906 C 11.234375 28.566406 10.324219 28.292969 9.445312 27.925781 C 8.5625 27.5625 7.726562 27.117188 6.933594 26.585938 C 6.144531 26.054688 5.410156 25.453125 4.734375 24.78125 C 4.0625 24.105469 3.460938 23.375 2.929688 22.582031 C 2.402344 21.789062 1.953125 20.953125 1.589844 20.070312 C 1.222656 19.191406 0.949219 18.28125 0.761719 17.347656 C 0.578125 16.414062 0.484375 15.46875 0.484375 14.515625 C 0.484375 13.5625 0.578125 12.617188 0.761719 11.683594 C 0.949219 10.75 1.222656 9.839844 1.589844 8.960938 C 1.953125 8.082031 2.402344 7.242188 2.929688 6.453125 C 3.460938 5.660156 4.0625 4.925781 4.734375 4.25 C 5.410156 3.578125 6.144531 2.976562 6.933594 2.445312 C 7.726562 1.917969 8.5625 1.46875 9.445312 1.105469 C 10.324219 0.738281 11.234375 0.464844 12.167969 0.277344 C 13.101562 0.09375 14.046875 0 15 0 C 15.953125 0 16.898438 0.09375 17.832031 0.277344 C 18.765625 0.464844 19.675781 0.738281 20.554688 1.105469 C 21.4375 1.46875 22.273438 1.917969 23.066406 2.445312 C 23.855469 2.976562 24.589844 3.578125 25.265625 4.25 C 25.9375 4.925781 26.539062 5.660156 27.070312 6.453125 C 27.597656 7.242188 28.046875 8.082031 28.410156 8.960938 C 28.777344 9.839844 29.050781 10.75 29.238281 11.683594 C 29.421875 12.617188 29.515625 13.5625 29.515625 14.515625 Z M 29.515625 14.515625 " fill-opacity="1" fill-rule="nonzero"/></g><path fill="#212121" d="M 15 27.648438 C 7.753906 27.648438 1.867188 21.761719 1.867188 14.515625 C 1.867188 7.269531 7.753906 1.382812 15 1.382812 C 22.246094 1.382812 28.132812 7.269531 28.132812 14.515625 C 28.132812 21.761719 22.246094 27.648438 15 27.648438 Z M 15 1.710938 C 7.925781 1.710938 2.191406 7.441406 2.191406 14.515625 C 2.191406 21.589844 7.949219 27.324219 15 27.324219 C 22.074219 27.324219 27.808594 21.570312 27.808594 14.515625 C 27.808594 7.441406 22.074219 1.710938 15 1.710938 Z M 15 1.710938 " fill-opacity="1" fill-rule="nonzero"/><path fill="#ffffff" d="M 12.3125 14.121094 C 10.175781 13.234375 8.300781 13.15625 6.574219 13.871094 L 6.46875 13.609375 C 8.265625 12.863281 10.214844 12.949219 12.421875 13.859375 Z M 12.3125 14.121094 " fill-opacity="1" fill-rule="nonzero"/><path fill="#ffffff" d="M 12.421875 15.570312 C 10.21875 14.65625 8.265625 14.574219 6.46875 15.320312 L 6.578125 15.578125 C 8.304688 14.867188 10.179688 14.945312 12.3125 15.828125 Z M 12.421875 15.570312 " fill-opacity="1" fill-rule="nonzero"/><path fill="#ffffff" d="M 12.421875 12.148438 C 10.21875 11.238281 8.265625 11.15625 6.46875 11.898438 L 6.578125 12.160156 C 8.304688 11.445312 10.179688 11.527344 12.3125 12.410156 Z M 12.421875 12.148438 " fill-opacity="1" fill-rule="nonzero"/><g clip-path="url(#5d77ca7f1e)"><path fill="#ffffff" d="M 21.933594 15.523438 L 21.933594 20.25 C 17.964844 17.738281 14.535156 20.039062 14.535156 20.433594 L 14.535156 12.0625 C 14.535156 10.574219 16.5 9.769531 18.925781 9.769531 C 19.59375 9.769531 20.21875 9.871094 20.785156 10.035156 L 21.601562 9.21875 C 17.542969 7.976562 14.425781 9.8125 13.996094 10.207031 C 13.386719 9.613281 9.859375 7.558594 5.035156 9.65625 C 5.035156 9.6875 5.035156 10.265625 5.035156 11.152344 L 5.035156 21.148438 L 12.367188 21.148438 C 12.617188 21.363281 13.214844 21.519531 13.910156 21.519531 C 14.609375 21.519531 15.203125 21.363281 15.457031 21.148438 L 22.789062 21.148438 L 22.789062 14.664062 Z M 13.34375 20.433594 C 13.34375 20.039062 9.910156 17.738281 5.949219 20.25 L 5.949219 10.503906 C 6.734375 10.050781 7.789062 9.769531 8.953125 9.769531 C 11.375 9.769531 13.34375 10.574219 13.34375 12.0625 Z M 13.34375 20.433594 " fill-opacity="1" fill-rule="nonzero"/></g><path fill="#ffffff" d="M 15.089844 13.859375 L 15.199219 14.121094 C 16.039062 13.769531 16.90625 13.582031 17.761719 13.480469 L 17.882812 13.183594 C 16.953125 13.277344 16.007812 13.480469 15.089844 13.859375 Z M 15.089844 13.859375 " fill-opacity="1" fill-rule="nonzero"/><path fill="#ffffff" d="M 15.089844 15.570312 L 15.199219 15.828125 C 15.800781 15.582031 16.414062 15.410156 17.027344 15.289062 L 17.148438 14.988281 C 16.460938 15.113281 15.765625 15.289062 15.089844 15.570312 Z M 15.089844 15.570312 " fill-opacity="1" fill-rule="nonzero"/><path fill="#ffffff" d="M 15.089844 12.148438 L 15.199219 12.410156 C 16.492188 11.875 17.839844 11.664062 19.101562 11.71875 L 19.367188 11.453125 C 17.992188 11.355469 16.507812 11.5625 15.089844 12.148438 Z M 15.089844 12.148438 " fill-opacity="1" fill-rule="nonzero"/><g clip-path="url(#90aaf9c353)"><path fill="#ffffff" d="M 26.394531 9.359375 L 24.777344 7.742188 C 24.554688 7.519531 24.109375 7.601562 23.792969 7.921875 L 18.589844 13.125 L 18.039062 14.464844 C 17.917969 14.765625 17.742188 15.203125 17.59375 15.570312 C 17.550781 15.671875 17.503906 15.789062 17.46875 15.871094 L 17.210938 16.503906 C 17.054688 16.894531 17.242188 17.082031 17.628906 16.925781 L 18.265625 16.667969 C 18.34375 16.632812 18.464844 16.585938 18.566406 16.542969 C 18.933594 16.394531 19.367188 16.21875 19.671875 16.097656 L 21.011719 15.550781 L 26.21875 10.34375 C 26.535156 10.023438 26.613281 9.582031 26.394531 9.359375 Z M 19.511719 15.691406 L 18.667969 16.03125 L 18.105469 15.464844 L 18.273438 15.050781 L 18.445312 14.628906 L 18.742188 13.894531 L 20.238281 15.394531 Z M 19.511719 15.691406 " fill-opacity="1" fill-rule="nonzero"/></g></svg>