<svg xmlns="http://www.w3.org/2000/svg" xmlns:xlink="http://www.w3.org/1999/xlink" width="24" zoomAndPan="magnify" viewBox="0 0 30 30.000001" height="24" preserveAspectRatio="xMidYMid meet" version="1.0"><defs><clipPath id="1851d558f8"><path d="M 0.484375 0 L 29.515625 0 L 29.515625 29.03125 L 0.484375 29.03125 Z M 0.484375 0 " clip-rule="nonzero"/></clipPath><clipPath id="85d531a764"><path d="M 6.390625 7.230469 L 23.808594 7.230469 L 23.808594 21.746094 L 6.390625 21.746094 Z M 6.390625 7.230469 " clip-rule="nonzero"/></clipPath></defs><g clip-path="url(#1851d558f8)"><path fill="#78a75a" d="M 29.515625 14.515625 C 29.515625 15.46875 29.421875 16.414062 29.238281 17.347656 C 29.050781 18.28125 28.777344 19.191406 28.410156 20.070312 C 28.046875 20.953125 27.597656 21.789062 27.070312 22.582031 C 26.539062 23.375 25.9375 24.105469 25.265625 24.78125 C 24.589844 25.453125 23.855469 26.054688 23.066406 26.585938 C 22.273438 27.117188 21.4375 27.5625 20.554688 27.925781 C 19.675781 28.292969 18.765625 28.566406 17.832031 28.753906 C 16.898438 28.9375 15.953125 29.03125 15 29.03125 C 14.046875 29.03125 13.101562 28.9375 12.167969 28.753906 C 11.234375 28.566406 10.324219 28.292969 9.445312 27.925781 C 8.5625 27.5625 7.726562 27.117188 6.933594 26.585938 C 6.144531 26.054688 5.410156 25.453125 4.734375 24.78125 C 4.0625 24.105469 3.460938 23.375 2.929688 22.582031 C 2.402344 21.789062 1.953125 20.953125 1.589844 20.070312 C 1.222656 19.191406 0.949219 18.28125 0.761719 17.347656 C 0.578125 16.414062 0.484375 15.46875 0.484375 14.515625 C 0.484375 13.5625 0.578125 12.617188 0.761719 11.683594 C 0.949219 10.75 1.222656 9.839844 1.589844 8.960938 C 1.953125 8.082031 2.402344 7.242188 2.929688 6.453125 C 3.460938 5.660156 4.0625 4.925781 4.734375 4.25 C 5.410156 3.578125 6.144531 2.976562 6.933594 2.445312 C 7.726562 1.917969 8.5625 1.46875 9.445312 1.105469 C 10.324219 0.738281 11.234375 0.464844 12.167969 0.277344 C 13.101562 0.09375 14.046875 0 15 0 C 15.953125 0 16.898438 0.09375 17.832031 0.277344 C 18.765625 0.464844 19.675781 0.738281 20.554688 1.105469 C 21.4375 1.46875 22.273438 1.917969 23.066406 2.445312 C 23.855469 2.976562 24.589844 3.578125 25.265625 4.25 C 25.9375 4.925781 26.539062 5.660156 27.070312 6.453125 C 27.597656 7.242188 28.046875 8.082031 28.410156 8.960938 C 28.777344 9.839844 29.050781 10.75 29.238281 11.683594 C 29.421875 12.617188 29.515625 13.5625 29.515625 14.515625 Z M 29.515625 14.515625 " fill-opacity="1" fill-rule="nonzero"/></g><path fill="#ffffff" d="M 15 27.648438 C 7.753906 27.648438 1.867188 21.761719 1.867188 14.515625 C 1.867188 7.269531 7.753906 1.382812 15 1.382812 C 22.246094 1.382812 28.132812 7.269531 28.132812 14.515625 C 28.132812 21.761719 22.246094 27.648438 15 27.648438 Z M 15 1.710938 C 7.925781 1.710938 2.191406 7.441406 2.191406 14.515625 C 2.191406 21.589844 7.949219 27.324219 15 27.324219 C 22.074219 27.324219 27.808594 21.570312 27.808594 14.515625 C 27.808594 7.441406 22.074219 1.710938 15 1.710938 Z M 15 1.710938 " fill-opacity="1" fill-rule="nonzero"/><g clip-path="url(#85d531a764)"><path fill="#ffffff" d="M 23.40625 8.75 C 23.273438 8.621094 23.121094 8.554688 22.941406 8.554688 L 10.519531 8.554688 C 10.511719 8.503906 10.496094 8.417969 10.472656 8.289062 C 10.449219 8.164062 10.429688 8.0625 10.414062 7.984375 C 10.402344 7.910156 10.375 7.816406 10.339844 7.710938 C 10.300781 7.605469 10.253906 7.519531 10.203125 7.457031 C 10.152344 7.394531 10.082031 7.34375 9.996094 7.296875 C 9.910156 7.253906 9.8125 7.230469 9.703125 7.230469 L 7.054688 7.230469 C 6.875 7.230469 6.71875 7.296875 6.589844 7.425781 C 6.457031 7.558594 6.394531 7.714844 6.394531 7.890625 C 6.394531 8.070312 6.457031 8.226562 6.589844 8.359375 C 6.71875 8.488281 6.875 8.554688 7.054688 8.554688 L 9.164062 8.554688 L 10.996094 17.066406 C 10.980469 17.09375 10.910156 17.226562 10.78125 17.457031 C 10.65625 17.695312 10.554688 17.898438 10.476562 18.074219 C 10.402344 18.25 10.363281 18.386719 10.363281 18.484375 C 10.363281 18.664062 10.429688 18.816406 10.558594 18.949219 C 10.691406 19.078125 10.847656 19.144531 11.027344 19.144531 L 11.671875 19.144531 C 11.3125 19.148438 11.007812 19.277344 10.75 19.53125 C 10.492188 19.792969 10.363281 20.105469 10.363281 20.46875 C 10.363281 20.835938 10.492188 21.144531 10.75 21.40625 C 11.011719 21.664062 11.320312 21.792969 11.6875 21.792969 C 12.054688 21.792969 12.367188 21.664062 12.625 21.40625 C 12.882812 21.144531 13.011719 20.835938 13.011719 20.46875 C 13.011719 20.105469 12.882812 19.792969 12.625 19.53125 C 12.367188 19.277344 12.0625 19.148438 11.703125 19.144531 L 20.941406 19.144531 C 20.582031 19.148438 20.273438 19.277344 20.019531 19.53125 C 19.761719 19.792969 19.632812 20.105469 19.632812 20.46875 C 19.632812 20.835938 19.761719 21.144531 20.019531 21.40625 C 20.277344 21.664062 20.589844 21.792969 20.953125 21.792969 C 21.320312 21.792969 21.632812 21.664062 21.890625 21.40625 C 22.148438 21.144531 22.277344 20.835938 22.277344 20.46875 C 22.277344 20.105469 22.148438 19.792969 21.890625 19.53125 C 21.636719 19.277344 21.328125 19.148438 20.96875 19.144531 L 21.617188 19.144531 C 21.796875 19.144531 21.949219 19.078125 22.082031 18.949219 C 22.210938 18.816406 22.277344 18.664062 22.277344 18.484375 C 22.277344 18.304688 22.210938 18.148438 22.082031 18.019531 C 21.949219 17.886719 21.796875 17.820312 21.617188 17.820312 L 12.101562 17.820312 C 12.265625 17.492188 12.351562 17.269531 12.351562 17.160156 C 12.351562 17.089844 12.339844 17.015625 12.324219 16.933594 C 12.304688 16.847656 12.285156 16.757812 12.261719 16.65625 C 12.238281 16.558594 12.222656 16.484375 12.214844 16.433594 L 23.011719 15.171875 C 23.183594 15.152344 23.328125 15.078125 23.4375 14.953125 C 23.546875 14.824219 23.601562 14.675781 23.601562 14.511719 L 23.601562 9.214844 C 23.601562 9.039062 23.535156 8.882812 23.40625 8.75 " fill-opacity="1" fill-rule="nonzero"/></g></svg>